<svg width="47" height="51" viewBox="0 0 47 51" fill="none" xmlns="http://www.w3.org/2000/svg">
<path d="M26.93 2.04855C26.69 1.64855 26.4 1.29855 26.06 1.01855C25.67 0.688555 25.24 0.438555 24.79 0.268555L24.6 0.218554C23.29 -0.211446 21.82 -0.0114452 20.64 0.858555C20.22 1.16855 19.85 1.58856 19.56 2.07856C8.47 3.85856 0 13.4586 0 25.0486C0 36.6386 8.7 46.4986 20.01 48.0886C20.5 49.4686 21.81 50.4586 23.35 50.4586C24.89 50.4586 26.21 49.4586 26.7 48.0686C37.92 46.4086 46.53 36.7386 46.53 25.0586C46.53 13.3786 38.03 3.82856 26.92 2.07856L26.93 2.04855Z" fill="#D82028"/>
<path d="M2.39281 25.2891C2.39281 35.5891 9.85281 44.1491 19.6728 45.8591C19.6028 45.7291 19.5328 45.5991 19.4828 45.4591C19.4428 45.3691 19.3728 45.2191 19.1128 45.0091C18.9828 44.8991 18.8528 44.7791 18.7228 44.6691C18.6728 44.6291 18.6228 44.5791 18.5728 44.5391L18.3628 44.4491C18.1928 44.3791 18.0228 44.2991 17.8628 44.2191C17.5628 44.0691 17.1728 43.7591 16.9628 43.1591L16.8728 42.9591C16.8228 42.8591 16.7728 42.7591 16.7328 42.6491C16.5528 42.1991 16.3428 41.5791 16.3428 40.8591C10.3928 38.1991 6.23281 32.2391 6.23281 25.2991C6.23281 18.7491 9.93281 13.0691 15.3428 10.2191C15.3428 10.0991 15.3428 9.97914 15.3528 9.86914C15.4028 9.05914 15.8928 8.40914 16.7028 8.08914C16.8028 8.04914 16.8928 8.00914 16.9928 7.97914C17.2228 7.52914 17.6128 7.03914 18.3128 6.65914C18.3928 6.61914 18.5128 6.54914 18.6628 6.49914C18.8128 6.31914 18.9628 6.13914 19.1328 5.95914C19.0128 5.58914 18.9628 5.22914 18.9428 4.86914C9.48281 6.85914 2.38281 15.2491 2.38281 25.2991L2.39281 25.2891Z" fill="white"/>
<path d="M27.5628 4.84961C27.5428 5.19961 27.4928 5.55961 27.3728 5.92961C27.5528 6.10961 27.7128 6.29961 27.8728 6.48961C28.6028 6.72961 29.1828 7.22961 29.5328 7.93961C29.7228 8.00961 29.8828 8.08961 30.0228 8.15961L30.1628 8.22961C30.4828 8.37961 30.8928 8.68961 31.0828 9.33961C31.1528 9.57961 31.2128 9.87961 31.2128 10.2196C36.6328 13.0796 40.3328 18.7496 40.3328 25.2996C40.3328 32.1796 36.2528 38.0896 30.3828 40.7896C30.3828 40.9796 30.3828 41.1796 30.3428 41.3696C30.2628 41.8796 30.1228 42.3596 29.9128 42.7996C29.8828 42.8596 29.8528 42.9296 29.8328 42.9896C29.7828 43.1096 29.7328 43.2396 29.6728 43.3596C29.5628 43.5696 29.3728 43.8596 29.0528 44.0796C28.8228 44.2296 28.5728 44.3896 28.2628 44.4896C28.2128 44.5096 28.1428 44.5396 28.0528 44.6096L27.9728 44.6896C27.7828 44.8596 27.5828 45.0396 27.4128 45.2296C27.3828 45.2596 27.3428 45.3196 27.3028 45.4096C27.2328 45.5596 27.1628 45.6996 27.0828 45.8496C36.8128 44.0696 44.1828 35.5496 44.1828 25.3096C44.1828 15.0696 37.0628 6.83961 27.5828 4.85961L27.5628 4.84961Z" fill="white"/>
<path d="M19.5528 7.42938C19.4328 7.56938 19.3228 7.67937 19.1328 7.68937C19.0628 7.68937 18.9928 7.72938 18.9328 7.76938C18.5028 7.99938 18.1828 8.32937 18.0428 8.80937C18.0028 8.94937 17.9328 9.00937 17.7928 9.04937C17.5828 9.10937 17.3828 9.18938 17.1928 9.26938C17.0328 9.32938 16.9028 9.41937 16.8128 9.52937C16.7228 9.63937 16.6628 9.76937 16.6528 9.93937C16.6128 10.5494 16.6628 11.1494 17.1228 11.6194C17.2128 11.7094 17.2728 11.8094 17.2828 11.9394C17.3228 12.3794 17.5228 12.7594 17.7828 13.1094C17.9028 13.2694 17.9428 13.4194 17.9428 13.6094C17.9428 19.9094 17.9628 26.1994 17.9728 32.4994C17.9728 34.7994 17.9828 37.0994 17.9928 39.4094C17.9928 39.5094 17.9928 39.6294 17.9328 39.7094C17.7828 39.9494 17.7028 40.1994 17.6528 40.4694C17.5928 40.7894 17.6128 41.0894 17.6728 41.3894C17.7228 41.6494 17.8028 41.8994 17.9128 42.1394C17.9128 42.1394 17.9128 42.1394 17.9128 42.1494C17.9728 42.2994 18.0528 42.4394 18.1228 42.5894C18.1428 42.6394 18.1628 42.6794 18.1828 42.7294C18.2328 42.8794 18.3228 42.9994 18.4528 43.0694C18.6628 43.1794 18.8828 43.2694 19.1028 43.3694C19.1728 43.3994 19.2428 43.4194 19.2928 43.4694C19.5028 43.6494 19.7028 43.8494 19.9228 44.0194C20.2428 44.2894 20.5128 44.5894 20.6728 44.9894C20.8328 45.3794 21.0728 45.6894 21.4528 45.8794C21.4528 45.8794 21.4528 45.8894 21.4528 45.8994C21.4128 45.9594 21.3728 46.0294 21.3428 46.0994C21.1828 46.4094 21.0828 46.7694 21.0828 47.1494C21.0828 47.6594 21.2528 48.1294 21.5428 48.5094C21.9628 49.0694 22.6128 49.4294 23.3628 49.4294C24.1128 49.4294 24.7828 49.0594 25.1928 48.4894C25.4728 48.1094 25.6428 47.6494 25.6428 47.1494C25.6428 46.7694 25.5428 46.4094 25.3728 46.0894C25.3328 46.0194 25.2928 45.9494 25.2528 45.8794C25.7128 45.6794 25.9328 45.2994 26.1228 44.8794C26.2028 44.6894 26.3128 44.5094 26.4528 44.3594C26.6828 44.1094 26.9328 43.8894 27.1828 43.6594C27.3828 43.4794 27.5928 43.3494 27.8528 43.2694C28.0228 43.2194 28.1828 43.1094 28.3328 43.0094C28.4128 42.9594 28.4728 42.8694 28.5128 42.7894C28.6028 42.6094 28.6628 42.4294 28.7528 42.2494C28.8928 41.9594 28.9828 41.6494 29.0428 41.3394C29.0428 41.2894 29.0728 41.2394 29.0728 41.1894C29.1428 40.7094 29.0828 40.2494 28.8528 39.8194C28.7628 39.6594 28.7328 39.5094 28.7328 39.3294C28.7128 34.3994 28.6828 29.4594 28.6628 24.5294C28.6428 20.8694 28.6428 17.1994 28.6228 13.5394C28.6228 13.3794 28.6628 13.2594 28.7628 13.1294C29.0428 12.7694 29.2428 12.3594 29.2928 11.8994C29.3028 11.7794 29.3428 11.6994 29.4228 11.6194C29.6628 11.3894 29.8028 11.1094 29.8428 10.7794C29.8528 10.6694 29.8828 10.5494 29.9028 10.4394C29.9628 10.1894 29.9028 9.94937 29.8428 9.70937C29.8228 9.64937 29.8028 9.59937 29.7728 9.54937C29.7328 9.48937 29.6828 9.43937 29.6128 9.39937C29.3928 9.28937 29.1728 9.15938 28.9428 9.09938C28.6728 9.02938 28.5428 8.87937 28.4328 8.61937C28.2228 8.12937 27.8528 7.77938 27.3128 7.66938C27.1928 7.63938 27.1128 7.57938 27.0328 7.48938C26.6928 7.06938 26.3428 6.64938 25.8828 6.34938C25.8628 6.32938 25.8428 6.29937 25.8228 6.27937C26.1528 5.72937 26.2928 5.17937 26.3028 4.63937C26.3228 3.68937 25.8928 2.81937 25.2428 2.26937C25.1728 2.20937 25.0928 2.15938 25.0128 2.10938C23.9528 1.35938 22.5428 1.35938 21.4728 2.10938C21.4528 2.11937 21.4328 2.12937 21.4128 2.14937C20.7328 2.64937 20.2028 3.57937 20.2128 4.63937C20.2128 5.16937 20.3528 5.72937 20.6928 6.29937C20.6728 6.31937 20.6628 6.33938 20.6428 6.34938C20.2028 6.63938 19.8728 7.03937 19.5428 7.43937L19.5528 7.42938ZM24.7528 47.4894C24.7328 47.5794 24.6828 47.6694 24.6428 47.7594C24.4228 48.2994 24.0128 48.5394 23.4428 48.5294C22.8028 48.5294 22.1828 47.9994 22.0228 47.3294C21.9228 46.8894 22.0228 46.4894 22.2728 46.1394C22.2928 46.1094 22.3128 46.0694 22.3428 46.0394C22.4128 45.9494 22.4928 45.9194 22.6228 45.9194C23.1228 45.9294 23.6228 45.9194 24.1328 45.9194C24.2228 45.9194 24.2928 45.9194 24.3528 45.9894C24.3928 46.0294 24.4228 46.0794 24.4628 46.1294C24.6728 46.3994 24.8128 46.6994 24.8328 47.0494C24.8328 47.1894 24.7928 47.3394 24.7528 47.4794V47.4894ZM25.5228 44.3594C25.3528 44.7794 24.9828 44.9594 24.5828 45.0994C24.2328 45.2194 23.8728 45.2194 23.5028 45.2094C23.0728 45.1994 22.6328 45.2394 22.2028 45.1194C21.6928 44.9794 21.3028 44.7194 21.1228 44.2094C21.0628 44.0594 21.0128 43.8994 20.9528 43.7494C21.7528 43.7694 22.5528 43.7994 23.3528 43.7994C24.1528 43.7994 24.9528 43.7594 25.7728 43.7294C25.6828 43.9494 25.6028 44.1494 25.5228 44.3594ZM28.3328 41.3294C28.3128 41.4194 28.2828 41.5094 28.2528 41.5994C28.2128 41.7094 28.1828 41.8294 28.1528 41.9394C28.0828 42.2394 27.8828 42.3594 27.6128 42.4494C26.9328 42.6694 26.2428 42.8194 25.5428 42.9094C24.6728 43.0194 23.8028 43.1094 22.9328 43.0694C21.6728 43.0094 20.4128 42.8894 19.2028 42.4994C18.7328 42.3494 18.7328 42.3494 18.5528 41.8894C18.5228 41.8094 18.5028 41.7194 18.4728 41.6394C18.4528 41.5694 18.4328 41.5094 18.4128 41.4494C18.3828 41.3494 18.3828 41.2394 18.3528 41.1094C18.4328 41.1294 18.4828 41.1394 18.5328 41.1594C19.0828 41.3294 19.6228 41.5394 20.1828 41.6694C20.9528 41.8494 21.7428 41.9194 22.5428 41.9094C23.3728 41.8994 24.2128 41.9094 25.0428 41.8794C25.4228 41.8694 25.8128 41.7694 26.1928 41.7294C26.8828 41.6494 27.5028 41.3594 28.1528 41.1594C28.2128 41.1394 28.2728 41.1194 28.3628 41.0894C28.3628 41.1894 28.3628 41.2794 28.3328 41.3494V41.3294ZM26.0828 32.8694C25.7528 33.1594 25.4228 33.4494 25.0828 33.7194C24.2328 34.4094 23.4628 35.1794 22.7428 35.9994C22.3528 36.4394 21.9528 36.8794 21.5628 37.3194C21.1328 37.7894 20.7428 38.2794 20.3928 38.8194C20.1728 39.1594 19.9428 39.4994 19.7128 39.8394C19.4728 39.7894 19.2328 39.7294 18.9928 39.6694C18.9028 39.6494 18.8128 39.5994 18.7128 39.5594C18.7128 38.7594 18.7128 37.9694 18.7128 37.1694C18.7128 35.8994 18.7128 35.5194 18.7128 36.5994C18.8028 36.4694 18.8928 36.3494 18.9928 36.2294C19.8228 35.2794 20.6428 34.3194 21.5028 33.3894C22.1228 32.7294 22.8028 32.1194 23.4528 31.4894C24.4128 30.5494 25.4228 29.6794 26.4828 28.8694C26.8728 28.5694 27.2828 28.2894 27.6928 28.0094C27.8128 27.9294 27.9028 27.8294 27.9728 27.7194V28.2894C27.9728 29.3194 27.9728 30.3494 27.9828 31.3794C27.3328 31.8494 26.6828 32.3194 26.0928 32.8594L26.0828 32.8694ZM28.0028 37.0994C28.0028 37.7894 28.0028 38.4894 28.0028 39.1794C28.0028 39.2894 28.0028 39.3894 28.0028 39.5194C27.9128 39.5594 26.6628 39.8794 26.5728 39.8994C26.0628 39.9994 25.5628 40.0894 25.0428 40.1094C25.7128 39.3294 27.2628 37.8094 27.9928 37.0994H28.0028ZM27.7128 22.6094C26.3528 23.3194 25.1128 24.2094 23.8828 25.1094C22.4028 26.1894 21.0228 27.3994 19.8528 28.8194C19.8128 28.8594 18.8828 29.9894 18.7028 30.2294C18.7028 30.9994 18.7028 27.8794 18.6928 26.6094C18.8728 26.4094 19.2328 26.1494 19.2328 26.0294C20.2228 25.0094 21.5628 23.6394 22.2728 23.0394C23.7628 21.7894 25.2928 20.5994 26.8828 19.4894C27.0228 19.3894 27.6528 18.9894 27.9428 18.7994C27.9428 18.9294 27.9428 19.0494 27.9428 19.1794C27.9428 20.2794 27.9428 21.3794 27.9428 22.4794C27.8628 22.5294 27.7828 22.5794 27.7028 22.6194L27.7128 22.6094ZM27.9228 13.5594C27.3428 13.8694 26.2728 14.4794 25.8828 14.7394C24.6428 15.5294 23.4528 16.3794 22.3528 17.3694C22.2928 17.4194 22.2328 17.4694 22.1828 17.5194C21.2828 18.2494 19.6028 19.9094 18.6828 20.8694C18.6828 20.0694 18.6828 19.2594 18.6828 18.4594C18.6828 18.0294 18.6828 17.5994 18.6828 17.1694C19.3328 16.3994 20.0328 15.6594 20.8128 15.0094C21.7928 14.1894 22.8328 13.4694 24.0028 12.9494C24.1228 12.8994 24.3028 12.8394 24.5028 12.7894C26.0528 12.8994 27.9328 13.0894 27.9428 13.1194C27.9628 13.1694 27.9428 13.4694 27.9428 13.5694L27.9228 13.5594ZM18.6628 40.3394C18.7928 40.3694 18.9328 40.3894 19.0628 40.4394C19.6528 40.6694 20.2828 40.7294 20.9028 40.7994C22.1028 40.9294 23.3028 40.9094 24.5128 40.8794C25.2828 40.8594 26.0428 40.7894 26.7928 40.6494C27.0428 40.5994 27.2828 40.5194 27.5328 40.4594C27.7028 40.4094 27.8828 40.3594 28.0628 40.3294C27.9828 40.4694 27.8428 40.4994 27.7128 40.5394C27.4728 40.6094 27.2228 40.6794 26.9728 40.7494C26.7728 40.8094 26.5828 40.8994 26.3828 40.9194C25.6828 40.9894 24.9928 41.1794 24.2728 41.1694C23.5028 41.1594 22.7428 41.1694 21.9728 41.1694C21.8428 41.1694 21.7128 41.1394 21.5828 41.1194C21.1928 41.0694 20.8028 41.0194 20.4128 40.9494C20.1928 40.9094 19.9828 40.8394 19.7728 40.7794C19.5328 40.7094 19.3028 40.6394 19.0628 40.5794C18.9128 40.5394 18.7628 40.4994 18.6528 40.3894C18.6528 40.3694 18.6628 40.3594 18.6728 40.3394H18.6628ZM28.2528 12.6794C28.1728 12.6694 28.1228 12.6594 28.0828 12.6494C27.5128 12.4394 26.9228 12.3594 26.3228 12.2794C25.0128 12.0894 23.6928 12.0694 22.3728 12.1094C21.7428 12.1294 21.1128 12.2094 20.4828 12.2694C19.9528 12.3294 19.4228 12.3894 18.9028 12.5394C18.7228 12.5894 18.5428 12.6494 18.3528 12.7094C18.1728 12.4894 18.0228 12.2594 17.9428 11.9694C17.9928 11.9494 18.0328 11.9194 18.0728 11.8994C19.3528 11.5794 20.6528 11.3694 21.9728 11.2694C22.7428 11.2094 23.5228 11.1894 24.2928 11.2394C25.7128 11.3294 27.1228 11.5294 28.5128 11.8694C28.5428 11.8694 28.5728 11.8994 28.6528 11.9394C28.5128 12.1894 28.3828 12.4294 28.2528 12.6694V12.6794ZM28.7528 9.79937C28.8328 9.81938 28.9128 9.83937 28.9928 9.86937C29.2728 9.95937 29.3028 9.98938 29.2628 10.2694C29.2028 10.6194 29.1628 10.9794 28.7928 11.1994C28.7728 11.1994 28.7228 11.1894 28.6828 11.1694C27.7828 10.8294 26.8428 10.6794 25.8828 10.5894C24.5228 10.4594 23.1628 10.4694 21.8028 10.5194C20.6728 10.5594 19.5528 10.6894 18.4628 11.0094C18.2228 11.0794 17.9928 11.1594 17.7628 11.2394C17.3728 10.9794 17.3328 10.5594 17.2828 10.1494C17.2728 10.0594 17.3128 9.98937 17.4028 9.95937C17.5428 9.90937 17.6828 9.85938 17.8228 9.82938C18.8928 9.56938 19.9728 9.40937 21.0628 9.30937C22.1928 9.19937 23.3228 9.16937 24.4428 9.21937C25.8928 9.28937 27.3328 9.45937 28.7428 9.79937H28.7528ZM26.9328 8.31938C27.1728 8.35938 27.3828 8.49937 27.5628 8.71937C27.3928 8.69937 27.2228 8.68938 27.0428 8.66938C24.4928 8.38938 21.9628 8.39937 19.4128 8.69937C19.2628 8.71937 19.1228 8.71938 18.9728 8.73938C19.1528 8.50938 19.3728 8.37938 19.6228 8.33938C20.4928 8.19938 21.3728 8.08938 22.2528 8.07938C23.0028 8.07938 23.7528 8.05938 24.5028 8.07938C25.3228 8.09938 26.1328 8.18937 26.9328 8.31938ZM26.0828 7.44937C25.5828 7.40937 25.1228 7.37938 24.6228 7.34938C24.9128 7.13938 25.1428 6.97937 25.3728 6.80937C25.6728 6.93937 25.8628 7.18937 26.0828 7.44937ZM20.9228 4.53938C20.9428 3.45938 21.7628 2.25938 23.2428 2.24938C24.7828 2.24938 25.5928 3.49938 25.5728 4.52938C25.5728 4.54938 25.5728 4.56938 25.5728 4.57938C25.5728 5.85938 24.5028 6.94938 23.2428 6.90938C21.6728 6.85938 20.9028 5.60937 20.9128 4.54937C20.9128 4.54937 20.9128 4.53938 20.9128 4.52938L20.9228 4.53938ZM21.1428 6.81938C21.3828 6.98938 21.6128 7.14938 21.8728 7.33938C21.6228 7.41938 21.3928 7.38938 21.1528 7.40938C20.9228 7.42938 20.6928 7.45937 20.4328 7.47937C20.6428 7.20937 20.8428 6.95937 21.1328 6.81938H21.1428Z" fill="white"/>
<path d="M22.4628 47.0896C22.3528 47.4796 22.6728 47.9196 23.0728 48.0396C23.6228 48.2096 24.0328 47.9996 24.2428 47.5196C23.5328 47.7796 22.9628 47.5996 22.4728 47.0796L22.4628 47.0896Z" fill="white"/>
</svg>
