<svg width="47" height="47" viewBox="0 0 47 47" fill="none" xmlns="http://www.w3.org/2000/svg">
<path d="M23.27 46.54C36.1217 46.54 46.54 36.1217 46.54 23.27C46.54 10.4183 36.1217 0 23.27 0C10.4183 0 0 10.4183 0 23.27C0 36.1217 10.4183 46.54 23.27 46.54Z" fill="white"/>
<path d="M20.8697 14.8331C21.0313 14.603 21.2397 14.4096 21.4812 14.2654C21.7226 14.1213 21.9918 14.0297 22.2711 13.9967C22.5503 13.9636 22.8334 13.9899 23.1019 14.0736C23.3703 14.1574 23.6181 14.2968 23.829 14.4828L24.6161 15.1771C24.841 15.3756 25.1077 15.5209 25.3964 15.6022C25.6851 15.6836 25.9884 15.6991 26.2839 15.6474L27.3198 15.4663C27.5969 15.418 27.881 15.4286 28.1537 15.4975C28.4265 15.5664 28.6816 15.692 28.9024 15.8662C29.1232 16.0404 29.3049 16.2592 29.4354 16.5083C29.5659 16.7575 29.6425 17.0314 29.66 17.3121L29.7257 18.3606C29.7445 18.6598 29.8303 18.951 29.9769 19.2125C30.1234 19.474 30.3268 19.6993 30.5721 19.8716L31.431 20.4748C31.6612 20.6365 31.8548 20.8449 31.999 21.0865C32.1433 21.328 32.2349 21.5973 32.268 21.8767C32.301 22.1561 32.2748 22.4393 32.1909 22.7079C32.1071 22.9764 31.9675 23.2242 31.7814 23.4352L31.087 24.2222C30.8886 24.4472 30.7433 24.7139 30.6619 25.0026C30.5805 25.2913 30.5651 25.5946 30.6168 25.8901L30.7978 26.926C30.8462 27.2031 30.8356 27.4872 30.7667 27.7599C30.6978 28.0326 30.5722 28.2877 30.398 28.5086C30.2238 28.7294 30.005 28.911 29.7558 29.0416C29.5067 29.1721 29.2328 29.2486 28.9521 29.2661L27.9035 29.3318C27.6044 29.3507 27.3132 29.4365 27.0517 29.583C26.7901 29.7296 26.5649 29.933 26.3926 30.1783L25.7893 31.0372C25.6277 31.2674 25.4193 31.461 25.1777 31.6052C24.9361 31.7494 24.6669 31.8411 24.3875 31.8742C24.1081 31.9072 23.8249 31.881 23.5563 31.7971C23.2878 31.7133 23.0399 31.5737 22.829 31.3875L22.0419 30.6932C21.817 30.4948 21.5503 30.3495 21.2616 30.2681C20.9729 30.1867 20.6696 30.1713 20.3741 30.223L19.3382 30.404C19.0611 30.4524 18.7769 30.4418 18.5042 30.3729C18.2315 30.304 17.9764 30.1783 17.7556 30.0042C17.5347 29.83 17.3531 29.6112 17.2226 29.362C17.0921 29.1129 17.0155 28.839 16.998 28.5583L16.9323 27.5097C16.9135 27.2105 16.8277 26.9194 16.6811 26.6579C16.5346 26.3963 16.3312 26.1711 16.0859 25.9987L15.227 25.3955C14.9968 25.2339 14.8032 25.0254 14.659 24.7839C14.5147 24.5423 14.4231 24.2731 14.39 23.9937C14.357 23.7143 14.3832 23.4311 14.4671 23.1625C14.5509 22.8939 14.6905 22.6461 14.8766 22.4352L15.5709 21.6481C15.7694 21.4232 15.9147 21.1565 15.9961 20.8678C16.0775 20.5791 16.0929 20.2757 16.0412 19.9803L15.8602 18.9444C15.8119 18.6674 15.8227 18.3833 15.8916 18.1107C15.9606 17.8381 16.0863 17.5831 16.2605 17.3624C16.4347 17.1417 16.6534 16.9601 16.9025 16.8297C17.1516 16.6992 17.4254 16.6227 17.706 16.6052L18.7546 16.5395C19.0538 16.5207 19.3449 16.4348 19.6064 16.2883C19.868 16.1418 20.0932 15.9384 20.2655 15.693L20.8697 14.8331Z" stroke="#D82028" stroke-width="1.5"/>
<path d="M20.5525 20.7466L20.5624 20.7454L20.5636 20.7553L20.5537 20.7565L20.5525 20.7466ZM26.1055 25.1242L26.1154 25.1231L26.1166 25.133L26.1067 25.1342L26.1055 25.1242Z" stroke="#D82028" stroke-width="2.25" stroke-linejoin="round"/>
<path d="M25.9556 19.6034L20.7024 26.267" stroke="#D82028" stroke-width="1.5" stroke-linecap="round" stroke-linejoin="round"/>
<path d="M38.76 10.0698L41.15 29.3398C41.18 29.5398 41.18 29.7398 41.15 29.9398C42.18 27.4598 42.76 24.7498 42.76 21.8898C42.76 17.1498 41.18 12.7798 38.52 9.27979C38.63 9.52979 38.71 9.78979 38.75 10.0698H38.76Z" fill="#D82028"/>
<path d="M34.77 33.04C31.64 36.65 27.04 38.95 21.88 38.95C18.24 38.95 14.87 37.8 12.1 35.86L8.55 36.3C8.43 36.31 8.31 36.32 8.19 36.32C6.76 36.32 5.51 35.25 5.33 33.79L2.94 14.52C2.85 13.76 3.05 13 3.53 12.4C4 11.79 4.68 11.41 5.45 11.31L8.88 10.88C12.01 7.19 16.67 4.84 21.88 4.84C25.58 4.84 28.99 6.03 31.79 8.03L35.55 7.56C36.26 7.47 36.95 7.66 37.54 8.06C33.71 3.73 28.12 1 21.89 1C10.35 1 1 10.35 1 21.89C1 33.43 10.35 42.78 21.89 42.78C29.87 42.78 36.79 38.31 40.31 31.74C39.86 32.18 39.29 32.47 38.65 32.55L34.77 33.03V33.04Z" fill="#D82028"/>
<circle cx="22" cy="22" r="13" fill="#D82028"/>
<circle cx="22" cy="22" r="18.5" stroke="#D82028" stroke-width="5"/>
<path d="M19.5376 13.8946C19.6993 13.6645 19.9077 13.4711 20.1491 13.327C20.3906 13.1828 20.6598 13.0913 20.939 13.0582C21.2183 13.0252 21.5014 13.0514 21.7698 13.1351C22.0383 13.2189 22.2861 13.3583 22.497 13.5443L23.284 14.2386C23.509 14.4371 23.7757 14.5824 24.0644 14.6638C24.3531 14.7452 24.6564 14.7606 24.9519 14.7089L25.9878 14.5279C26.2648 14.4795 26.549 14.4901 26.8217 14.559C27.0944 14.6279 27.3495 14.7535 27.5704 14.9277C27.7912 15.1019 27.9728 15.3207 28.1034 15.5699C28.2339 15.819 28.3104 16.0929 28.3279 16.3736L28.3936 17.4222C28.4125 17.7213 28.4983 18.0125 28.6448 18.274C28.7913 18.5356 28.9948 18.7608 29.2401 18.9331L30.0989 19.5364C30.3292 19.698 30.5228 19.9064 30.667 20.148C30.8112 20.3895 30.9029 20.6588 30.9359 20.9382C30.969 21.2176 30.9428 21.5008 30.8589 21.7694C30.7751 22.0379 30.6355 22.2858 30.4493 22.4967L29.755 23.2838C29.5566 23.5087 29.4113 23.7754 29.3299 24.0641C29.2485 24.3528 29.2331 24.6561 29.2848 24.9516L29.4658 25.9875C29.5142 26.2646 29.5036 26.5488 29.4347 26.8215C29.3658 27.0942 29.2401 27.3493 29.0659 27.5701C28.8918 27.791 28.673 27.9726 28.4238 28.1031C28.1747 28.2336 27.9008 28.3102 27.6201 28.3277L26.5715 28.3934C26.2723 28.4122 25.9812 28.498 25.7196 28.6446C25.4581 28.7911 25.2328 28.9945 25.0605 29.2398L24.4573 30.0987C24.2956 30.3289 24.0872 30.5225 23.8457 30.6667C23.6041 30.811 23.3348 30.9026 23.0555 30.9357C22.7761 30.9687 22.4928 30.9425 22.2243 30.8586C21.9557 30.7748 21.7079 30.6352 21.497 30.4491L20.7099 29.7548C20.485 29.5563 20.2183 29.411 19.9296 29.3296C19.6408 29.2482 19.3375 29.2328 19.0421 29.2845L18.0062 29.4655C17.7291 29.5139 17.4449 29.5033 17.1722 29.4344C16.8995 29.3655 16.6444 29.2399 16.4236 29.0657C16.2027 28.8915 16.0211 28.6727 15.8906 28.4235C15.76 28.1744 15.6835 27.9005 15.666 27.6198L15.6003 26.5712C15.5815 26.2721 15.4956 25.9809 15.3491 25.7194C15.2026 25.4578 14.9992 25.2326 14.7538 25.0603L13.895 24.457C13.6647 24.2954 13.4712 24.087 13.3269 23.8454C13.1827 23.6039 13.0911 23.3346 13.058 23.0552C13.0249 22.7758 13.0512 22.4926 13.135 22.224C13.2189 21.9555 13.3584 21.7076 13.5446 21.4967L14.2389 20.7096C14.4373 20.4847 14.5826 20.218 14.664 19.9293C14.7454 19.6406 14.7609 19.3373 14.7091 19.0418L14.5281 18.0059C14.4799 17.7289 14.4906 17.4448 14.5596 17.1722C14.6286 16.8996 14.7543 16.6446 14.9284 16.4239C15.1026 16.2032 15.3214 16.0217 15.5705 15.8912C15.8196 15.7607 16.0934 15.6842 16.374 15.6667L17.4225 15.601C17.7217 15.5822 18.0129 15.4964 18.2744 15.3498C18.5359 15.2033 18.7612 14.9999 18.9335 14.7546L19.5376 13.8946Z" stroke="white" stroke-width="1.5"/>
<path d="M19.2205 19.8081L19.2304 19.8069L19.2316 19.8169L19.2216 19.818L19.2205 19.8081ZM24.7735 24.1858L24.7834 24.1846L24.7846 24.1945L24.7747 24.1957L24.7735 24.1858Z" stroke="white" stroke-width="2.25" stroke-linejoin="round"/>
<path d="M24.6236 18.6649L19.3704 25.3285" stroke="white" stroke-width="1.5" stroke-linecap="round" stroke-linejoin="round"/>
</svg>
