<svg width="46" height="48" viewBox="0 0 46 48" fill="none" xmlns="http://www.w3.org/2000/svg">
<path d="M0.786163 22.7757C0.786163 35.2612 10.9076 45.5514 23.3931 45.5514C35.8785 45.5514 46 35.2612 46 22.7757C46 10.2903 35.8785 0 23.3931 0C10.9076 0 0.786163 10.2903 0.786163 22.7757Z" fill="white"/>
<path d="M26.9661 45.5438C26.2879 42.6566 26.5619 43.5196 28.6205 42.672C30.7391 41.8003 30.5969 40.7677 31.9208 39.6358C32.8439 38.8463 34.3082 38.1545 35.3547 37.2469C46.7951 27.3027 42.2087 8.50327 27.6478 4.87799C26.9541 2.6107 26.8205 0.63452 23.8337 1.06777C21.2356 1.44451 16.6269 3.02683 13.9466 3.85223C12.9396 4.16219 11.0043 4.6177 10.3483 5.39173C9.09296 6.8713 10.4494 8.41936 10.1514 9.46396C10.064 9.7722 8.9508 10.6747 8.64253 11.0497C3.51487 17.2916 2.91374 26.02 7.13027 32.9298C7.47451 33.4949 9.0313 35.2793 9.11693 35.567C9.47487 36.7589 8.77954 39.4114 8.80866 40.7557C8.449 41.1051 6.29449 38.8823 5.98108 38.5312C-9.19981 21.5419 6.75006 -4.80254 28.8483 0.768091C47.3603 5.43454 52.267 30.3714 36.6083 41.5794C33.8612 43.5453 30.364 45.2663 26.9695 45.5438H26.9661Z" fill="#D82028"/>
<path d="M25.5893 47.4381C25.1475 47.3645 23.8921 47.6659 23.7277 47.1573C23.7671 45.5681 22.6179 41.3041 24.7227 40.6636C26.2829 40.1893 26.8464 40.9941 28.3963 39.3707C31.5819 36.0332 34.5208 27.2328 33.9847 22.688C33.7227 20.4755 29.5729 19.9823 28.4135 18.3263C28.4683 19.3315 28.7115 20.5491 28.9923 21.5149C29.1157 21.9379 29.8178 23.986 30.2991 23.974C30.4721 23.9689 30.6296 23.1486 31.0698 23.2942C30.4498 24.3696 32.0802 25.0015 32.2395 25.9896C32.3645 26.7636 31.4226 29.9882 31.2633 31.1047C31.1606 31.8154 31.2017 32.6596 31.0698 33.3943C30.4584 34.1203 30.5354 31.1115 30.5509 30.906C30.6416 29.7108 31.6658 26.618 31.3849 25.8012C31.3318 25.6454 29.0848 23.6589 28.9221 23.6315C27.9511 23.4688 26.9834 24.6402 25.9353 24.4895C25.5705 24.1744 27.4544 23.2514 27.6034 23.1657C28.1086 22.878 27.3688 21.8095 27.0296 21.5971C25.2023 20.4549 24.5583 22.9757 24.7518 24.3901C25.0224 26.3749 27.6462 27.4828 26.7642 29.5155C26.0072 31.2588 23.7773 30.9437 22.1606 31.7623C21.0405 32.3291 19.7869 33.9046 18.9973 34.2505C18.785 34.343 18.6839 34.2162 18.7456 33.9987C18.8072 33.7813 20.2493 32.4301 20.5456 32.2007C22.1315 30.9694 24.1319 30.132 26.1083 29.7981C26.1836 29.6936 25.9045 29.1028 25.7657 29.0172C25.4061 28.7946 18.898 31.9164 17.9287 32.1698C16.937 32.4301 16.9644 29.8186 16.6048 29.8049C12.837 31.3222 11.5833 35.5348 12.2512 39.3057L11.8933 44.3574C11.794 44.4739 11.1295 44.0869 11.025 43.943C10.7493 43.5611 10.8332 39.7509 10.8589 38.9563C10.9719 35.4543 11.1483 32.6185 13.6111 29.8923C14.1814 29.2621 16.2811 28.149 16.3188 27.988C16.341 27.8904 15.8923 26.1146 15.8153 26.0512C15.7279 25.9776 15.0651 26.0735 14.7586 25.9947C13.5734 25.6865 12.9791 23.4449 13.1041 22.3712C13.2172 21.4019 13.8954 20.8505 14.4537 20.1467L11.5713 6.80661L12.0012 6.36651L24.6525 2.73096L25.168 2.91419C26.4182 7.33062 27.0125 11.956 28.0846 16.4358C28.9769 16.9889 29.7065 17.8348 30.6108 18.3623C31.9672 19.1552 34.5447 19.5011 35.0671 21.0988C36.6427 25.9228 32.0957 39.3074 27.2865 41.5147C26.6135 41.8247 25.4609 41.65 25.2845 42.2528C24.9899 43.2597 25.776 47.2549 25.5927 47.4416L25.5893 47.4381Z" fill="#D82028"/>
<path d="M24.5601 5.99497C24.6663 6.0258 24.8016 5.92305 24.9181 6.09601C25.0654 6.31691 25.2777 7.47282 25.3634 7.84614C26.367 12.2814 26.9681 16.8503 27.8159 21.3198C27.4597 21.2855 27.2627 20.8745 26.9082 20.6879C25.1116 19.7443 23.9436 21.8181 23.8888 23.4021C23.8648 24.0648 24.1423 24.7721 24.2553 25.4074C24.3084 25.702 24.5516 25.8441 24.0498 26.0307C22.1539 26.899 19.6997 27.7261 17.54 28.3991C17.5023 28.4111 17.439 28.3443 17.3705 28.2569C15.6938 21.9671 14.2397 15.6241 12.9176 9.24865C12.9056 9.14247 12.9005 9.05856 12.9176 9.05342C16.7385 7.94889 20.7238 6.87689 24.5619 5.99497H24.5601Z" fill="#D82028"/>
<path d="M12.7443 8.90632C12.669 8.5467 12.2614 7.03974 12.4155 6.86336L24.1694 3.45043C24.7705 3.40933 24.6592 5.14062 24.911 5.56017L24.392 5.82389C20.7527 6.97809 16.716 8.08434 12.9087 9.05702C12.8694 9.06729 12.8111 8.99708 12.746 8.90632H12.7443Z" fill="white"/>
<path d="M24.3909 26.2048C24.4491 26.2287 24.5964 26.1551 24.6975 26.2356C24.8739 26.3777 25.4219 27.9498 25.761 28.2563C24.2539 28.4789 19.652 31.1812 18.4874 31.0065C18.1021 30.9483 17.5266 29.5269 17.429 29.1108C17.3434 28.7443 17.5472 28.6262 17.5403 28.6005C17.5129 28.4977 17.4958 28.4155 17.5061 28.4121C19.7377 27.5816 22.1165 26.7664 24.3909 26.203V26.2048Z" fill="white"/>
<path d="M24.3909 5.82129C24.4251 5.8915 24.4885 5.97199 24.5621 5.99253L12.9161 9.24621C12.8939 9.13832 12.7671 9.00989 12.7449 8.90372L24.3909 5.82129Z" fill="#D82028"/>
<path d="M24.0468 26.0259C24.1393 26.1303 24.2695 26.1475 24.3894 26.1971L17.5388 28.5946C17.5062 28.4798 17.3966 28.3617 17.3675 28.2521L24.0468 26.0259Z" fill="#D82028"/>
<path d="M15.4852 24.8268C14.1391 25.0905 14.0123 21.7529 14.7162 21.7495C15.0485 22.0252 15.5965 24.7121 15.4852 24.8268Z" fill="white"/>
<path d="M17.5412 6.50784C17.4984 6.46331 17.4762 6.09514 17.656 5.99239C17.8701 5.87081 20.1273 5.20466 20.1068 5.73895C19.867 6.15336 17.7005 6.67223 17.5412 6.50784Z" fill="#D82028"/>
<path d="M18.1953 13.8215L16.4369 15.6597C16.4369 15.6597 16.2331 15.8819 15.8657 15.8765C15.8657 15.8765 15.0718 15.8313 15.252 15.5527L17.2606 13.3993L17.3507 13.44L15.4358 15.5257C15.4358 15.5257 15.3128 15.6393 15.4829 15.7022C15.4829 15.7022 15.6489 15.7974 15.6158 15.6428C15.6158 15.6428 15.5831 15.5286 15.7276 15.4098L17.4305 13.5452L17.4725 13.495L18.1953 13.8215Z" fill="white"/>
<path d="M17.7896 12.881C17.7896 12.881 18.5771 13.4325 18.8457 13.1303L19.4736 12.4795C19.4736 12.4795 19.5548 12.351 19.3751 12.0664C19.3751 12.0664 19.1135 11.8013 19.497 11.5114L19.8378 11.2292C19.8378 11.2292 19.9309 11.1417 19.7296 11.1434C19.7296 11.1434 19.5898 11.1222 19.3481 11.3137L17.7896 12.881Z" fill="white"/>
<path d="M20.7986 10.2459C20.7883 10.2608 20.7844 10.279 20.788 10.2964C20.7947 10.328 20.8176 10.3683 20.8944 10.3419C20.8944 10.3419 20.9825 10.319 21.16 9.95823L21.3567 9.51658C21.3672 9.49298 21.3339 9.47526 21.3191 9.49658L20.7986 10.2459Z" fill="white"/>
<path d="M26.1779 13.1921C25.9882 12.7524 25.5991 12.5451 25.2079 12.3096C24.9417 12.1493 24.6749 11.9944 24.3998 11.8479C23.2008 11.2091 21.9209 10.6437 20.565 10.3781C20.225 10.3115 19.3997 10.1315 19.3671 10.6605C19.3532 10.8862 19.6907 11.022 19.8733 11.0797C20.2172 11.1883 20.5801 11.2452 20.928 11.3349C22.1931 11.6611 23.367 12.2577 24.4162 13.0177C24.7684 13.2727 25.2356 13.7253 25.6606 13.8206C26.1349 13.9269 26.3597 13.6136 26.1779 13.1921ZM20.3 10.8777C20.2362 10.8929 20.1725 10.8548 20.1576 10.7925C20.1428 10.7303 20.1825 10.6675 20.2463 10.6523C20.3101 10.6371 20.3738 10.6752 20.3887 10.7374C20.4035 10.7997 20.3638 10.8625 20.3 10.8777ZM25.8102 13.5044C25.7464 13.5196 25.6827 13.4814 25.6678 13.4192C25.653 13.3569 25.6927 13.2942 25.7564 13.279C25.8202 13.2638 25.884 13.3019 25.8988 13.3641C25.9137 13.4263 25.874 13.4892 25.8102 13.5044Z" fill="white"/>
<path d="M25.26 14.1675C25.2588 14.1666 25.2575 14.1658 25.2562 14.1651C25.2131 14.1408 24.4707 13.7349 23.8202 14.2561C23.8202 14.2561 23.4545 14.5738 23.5847 15.1099C23.596 15.1564 23.5489 15.1967 23.5032 15.18L15.4697 12.2481C15.4697 12.2481 15.4236 12.2297 15.4261 12.2715C15.4261 12.2715 15.426 12.2741 15.427 12.279C15.4301 12.2952 15.4406 12.3092 15.4551 12.3177C15.5486 12.3721 16.0239 12.6435 16.7422 12.9568L21.0391 14.8124L21.115 14.8464C21.115 14.8464 21.206 14.9008 21.4314 14.7445C21.4314 14.7445 21.4817 14.7 21.6961 14.7877C21.7069 14.7921 21.7166 14.7989 21.7274 14.8032L24.6043 15.9346C24.6043 15.9346 25.2308 16.2268 25.6782 15.48C26.1135 14.7537 25.3044 14.1973 25.26 14.1675ZM21.0859 14.6943C21.0221 14.7095 20.9584 14.6714 20.9436 14.6091C20.9287 14.5469 20.9684 14.4841 21.0322 14.4689C21.096 14.4537 21.1597 14.4918 21.1745 14.5541C21.1894 14.6163 21.1497 14.6791 21.0859 14.6943ZM25.1661 15.6211C24.7485 15.7471 24.325 15.6426 24.0059 15.3684C23.6449 15.0581 23.6729 14.5255 24.1634 14.3678C24.5875 14.2313 25.0649 14.3269 25.3907 14.6208C25.7683 14.9614 25.6734 15.468 25.1661 15.6211Z" fill="white"/>
<path d="M21.2272 14.1708L21.5154 14.2614C21.5285 14.2656 21.5429 14.262 21.5525 14.2522L23.232 12.5532C23.2494 12.5356 23.2439 12.5067 23.2213 12.4967L23.0145 12.4055C23.0009 12.3995 22.9849 12.4024 22.9743 12.4127L21.2134 14.1123C21.1941 14.131 21.2016 14.1627 21.2272 14.1708Z" fill="white"/>
<path d="M20.5862 14.8206C20.471 14.7798 20.3558 14.8941 20.3558 14.8941L18.8961 16.3068C18.8943 16.3085 18.8919 16.3097 18.8893 16.3102C18.8822 16.3114 18.8756 16.3064 18.8749 16.2994L18.8718 16.2675C18.8319 15.5886 18.4079 15.4739 18.4079 15.4739C17.3872 15.0475 16.8229 16.1197 16.8229 16.1197C16.5037 16.7302 16.9103 17.143 17.1082 17.2971C17.1698 17.3451 17.3231 17.3773 17.3291 17.4545C17.334 17.5169 17.2954 17.5233 17.2492 17.5671L16.8876 17.9103C16.631 18.1513 16.3313 17.814 16.3119 17.8019C16.2925 17.7898 16.2699 17.79 16.2699 17.79C16.1686 17.8029 16.1814 17.8676 16.2297 17.9378C16.3352 18.0911 16.4961 18.2429 16.6845 18.2177C17.2846 18.1376 18.5152 17.0111 18.5152 17.0111L20.5538 14.9817C20.7039 14.8574 20.5862 14.8206 20.5862 14.8206ZM18.5341 16.5529C18.3172 16.942 17.7388 17.3038 17.2842 17.1502C17.0878 17.0839 16.9308 16.8753 16.9268 16.6713C16.9178 16.2124 17.339 15.7964 17.7666 15.6608C18.4281 15.4511 18.8706 15.9494 18.5341 16.5529Z" fill="white"/>
<path d="M17.4706 13.4949L17.4287 13.545L15.7258 15.4097C15.5812 15.5285 15.614 15.6426 15.614 15.6426C15.647 15.7973 15.4811 15.702 15.4811 15.702C15.311 15.6392 15.4339 15.5255 15.4339 15.5255L17.3488 13.4398L17.4706 13.4949Z" fill="white"/>
<path d="M20.6979 13.002C20.714 13.0693 20.6711 13.1371 20.6021 13.1536C20.5332 13.17 20.4643 13.1288 20.4482 13.0615C20.4322 12.9942 20.4751 12.9264 20.544 12.9099C20.613 12.8935 20.6819 12.9347 20.6979 13.002Z" fill="white"/>
<path d="M20.7669 13.2911C20.7829 13.3584 20.74 13.4262 20.6711 13.4427C20.6021 13.4591 20.5332 13.4179 20.5172 13.3506C20.5011 13.2833 20.544 13.2155 20.613 13.199C20.6819 13.1826 20.7508 13.2238 20.7669 13.2911Z" fill="white"/>
<path d="M21.0081 12.928C21.0241 12.9953 20.9812 13.0632 20.9123 13.0796C20.8433 13.0961 20.7744 13.0548 20.7584 12.9876C20.7423 12.9203 20.7852 12.8524 20.8542 12.836C20.9231 12.8196 20.992 12.8608 21.0081 12.928Z" fill="white"/>
<path d="M21.077 13.2171C21.0931 13.2844 21.0502 13.3523 20.9812 13.3687C20.9123 13.3852 20.8434 13.3439 20.8273 13.2767C20.8113 13.2094 20.8542 13.1415 20.9231 13.1251C20.9921 13.1087 21.061 13.1499 21.077 13.2171Z" fill="white"/>
</svg>
