<svg width="46" height="46" viewBox="0 0 46 46" fill="none" xmlns="http://www.w3.org/2000/svg">
<path d="M23.0052 9.71885e-05C42.382 -0.0543844 53.1242 22.8092 40.6417 37.6858C29.2644 51.2455 7.47175 47.4333 1.41651 30.8445C-4.07524 15.7998 7.09193 0.0467972 23.0052 0.00165533V9.71885e-05Z" fill="#D82028"/>
<path d="M21.3112 2.01647C25.4285 1.67712 29.5208 2.82746 32.7072 5.4706C35.1418 7.48953 39.1812 12.9393 40.3611 15.8735C44.1063 25.1852 39.9268 35.8885 30.7864 39.9777C29.9629 40.3466 28.6585 40.6112 27.9829 41.0658C27.3073 41.5203 26.4901 42.8123 25.6869 43.4396C24.4587 44.4016 23.1558 44.6958 21.5852 44.4545C20.1547 44.235 19.202 41.8503 18.0657 41.1249C16.9107 40.3886 14.7657 39.7971 13.3569 38.9846C6.00036 34.7412 2.58514 25.5292 5.11153 17.4161C5.84625 15.0563 8.92368 9.25941 10.5208 7.41482C12.9304 4.63159 17.6423 2.3169 21.3097 2.01491L21.3112 2.01647Z" fill="white"/>
<path d="M20.9984 3.72288C26.2956 3.18273 32.1796 5.99243 34.8538 10.6343C39.5361 18.7614 30.6712 32.8877 25.8908 39.592C24.9024 40.9789 23.5668 43.6377 21.5775 42.7473C19.6286 39.8753 17.5489 37.0983 15.6748 34.1734C11.3878 27.4831 5.92256 18.9684 10.3667 10.9907C12.3078 7.5039 16.9745 4.13383 21 3.72288H20.9984Z" fill="#D82028"/>
<path d="M21.1902 39.6359C21.1638 39.6172 21.0532 39.2389 20.9147 39.0568C14.8953 31.1274 3.7094 17.3296 14.1014 8.34476C21.8035 1.68555 33.0828 7.25669 32.5582 17.3062C32.222 23.7397 26.1169 34.9193 21.5669 39.4724C21.4673 39.5736 21.3505 39.7495 21.1902 39.6374V39.6359Z" fill="white"/>
<path d="M32.5512 26.3994C32.3567 26.608 31.1145 25.8904 31.6188 25.3113C32.0376 25.2615 32.8626 26.0631 32.5512 26.3994Z" fill="white"/>
<path d="M32.8596 25.3136C32.5887 25.5237 31.8213 24.5228 32.0828 24.2255C32.2276 24.0621 33.4262 24.8746 32.8596 25.3136Z" fill="white"/>
<path d="M31.5949 27.9816C31.8766 28.4673 31.2306 28.7677 30.8259 28.2089C30.6609 27.9801 30.6609 27.7621 30.6827 27.4975C30.7372 27.4353 31.5684 27.938 31.5949 27.9832V27.9816Z" fill="white"/>
<path d="M33.4836 22.9803C33.2719 23.1889 32.1682 22.2487 32.945 22.0479C33.5365 21.8953 33.7155 22.7515 33.4836 22.9803Z" fill="white"/>
<path d="M33.7989 21.5761C32.5801 21.6835 33.2183 20.0521 33.7242 20.7962C33.8612 20.9986 33.7895 21.3363 33.7989 21.5761Z" fill="white"/>
<path d="M32.0812 27.4905C31.7278 27.601 30.8733 26.8383 31.1488 26.5581C31.3838 26.3199 32.2836 27.0764 32.0812 27.4905Z" fill="white"/>
<path d="M32.6287 23.1348C32.9292 23.1892 33.7028 23.9395 33.0942 24.0641C32.8435 24.1154 32.0668 23.3823 32.6287 23.1348Z" fill="white"/>
<path d="M33.9343 19.418C34.2829 19.8351 33.5109 20.5387 33.3957 19.7962C33.3256 19.3432 33.6463 19.0755 33.9343 19.418Z" fill="white"/>
<path d="M20.0669 8.08212C31.6824 6.81348 33.0257 23.7043 22.8096 25.4571C11.2487 27.4402 9.46477 9.23869 20.0669 8.08212Z" fill="#D82028"/>
<path d="M20.3748 8.8574C30.7201 7.68682 31.9078 23.6017 22.3393 24.6757C11.9738 25.8385 10.7285 9.94859 20.3748 8.8574Z" fill="#D82028"/>
<path d="M20.3743 11.0358C21.218 11.8593 19.5322 12.1302 19.1664 12.3201C17.6113 13.1248 16.2866 14.5351 16.2197 16.3906C16.1948 17.0584 16.9046 18.5076 16.0983 18.7504C15.4149 18.9575 15.2873 18.6057 15.1596 18.0375C14.6677 15.8442 15.4741 13.5093 17.2237 12.0881C17.7981 11.6211 19.7423 10.4179 20.3727 11.0343L20.3743 11.0358Z" fill="white"/>
<path d="M19.2624 21.1424C19.4694 21.1035 20.6447 21.5752 21.1163 21.5845C21.6736 21.5954 23.3516 20.7766 23.1882 21.9332C23.0107 23.1972 19.1208 22.8485 18.8717 22.0997C18.7643 21.776 18.8982 21.2109 19.2608 21.1424H19.2624Z" fill="white"/>
</svg>
