<svg width="80" height="80" viewBox="0 0 80 80" fill="none" xmlns="http://www.w3.org/2000/svg">
<g clip-path="url(#clip0_574_176)">
<path d="M61.3812 76.2313C59.3215 75.3134 57.5043 73.9275 56.0743 72.1839C54.6442 70.4403 53.6408 68.3871 53.1437 66.1875C53.0972 65.9876 52.9876 65.808 52.8312 65.675C51.2888 64.3408 49.9957 62.743 49.0125 60.9563C48.6242 60.2713 48.4382 59.4902 48.476 58.7038C48.5138 57.9173 48.7739 57.1577 49.2261 56.5131C49.6783 55.8685 50.304 55.3654 51.0306 55.0622C51.7573 54.759 52.555 54.6681 53.3313 54.8C53.8341 54.8913 54.346 54.9227 54.8562 54.8938C54.9938 54.8855 55.1278 54.8471 55.2488 54.7812C55.3698 54.7153 55.4748 54.6236 55.5563 54.5125C57.5308 51.8114 60.4058 49.905 63.6625 49.1375C63.8659 49.0886 64.0468 48.9725 64.1761 48.8081C64.3054 48.6437 64.3755 48.4404 64.375 48.2313V41.3938C64.3748 41.1676 64.2932 40.9491 64.1452 40.7781C63.9972 40.6071 63.7926 40.4951 63.5687 40.4625C63.025 40.3813 62.5438 40.2938 62.1 40.1875C60.2428 39.7387 58.4815 38.9596 56.9 37.8875C56.7278 37.7642 56.5172 37.7066 56.3062 37.725C54.0118 37.8575 51.7122 37.5737 49.5188 36.8875C46.0694 35.9956 45.3019 31.0413 48.3187 29.1438C48.8982 28.7518 49.4235 28.2853 49.8812 27.7563C49.9708 27.6551 50.0369 27.5354 50.0747 27.4058C50.1125 27.2761 50.1212 27.1397 50.1 27.0063C49.6766 24.0418 50.0968 21.018 51.3125 18.2813C52.3933 15.8203 54.0858 13.6767 56.2288 12.0544C58.3719 10.432 60.8943 9.3849 63.5563 9.01251C63.787 8.9786 63.9968 8.85992 64.1447 8.67964C64.2926 8.49935 64.3681 8.27041 64.3563 8.03751C64.2582 5.8714 63.3281 3.82666 61.7598 2.32934C60.1914 0.832026 58.1058 -0.00237344 55.9375 5.07114e-06H24.0625C21.8258 0.00331143 19.6816 0.893322 18.0999 2.47494C16.5183 4.05657 15.6283 6.20076 15.625 8.43751V22.375C15.6264 22.5061 15.655 22.6355 15.709 22.7549C15.7631 22.8744 15.8414 22.9813 15.9389 23.0688C16.0365 23.1564 16.1512 23.2227 16.2758 23.2636C16.4003 23.3045 16.532 23.319 16.6625 23.3063C17.3788 23.2302 18.0985 23.1905 18.8188 23.1875C22.7711 23.1912 26.6389 24.3323 29.9604 26.4745C33.2818 28.6168 35.9166 31.6697 37.55 35.2688C37.6036 35.3893 37.6819 35.4972 37.7799 35.5854C37.8779 35.6737 37.9933 35.7404 38.1188 35.7813C39.3232 36.1761 40.5824 36.3786 41.85 36.3813C42.7718 36.3855 43.6736 36.6503 44.4514 37.1451C45.2291 37.6398 45.8512 38.3443 46.2459 39.1774C46.6405 40.0104 46.7916 40.938 46.6818 41.8533C46.5719 42.7685 46.2056 43.634 45.625 44.35C43.6757 46.8246 41.2617 48.8946 38.5188 50.4438C38.3183 50.5486 38.1644 50.7247 38.0875 50.9375C36.6221 54.8715 33.9868 58.2623 30.5363 60.6535C27.0858 63.0448 22.9856 64.3217 18.7875 64.3125C18.0775 64.3069 17.3683 64.2652 16.6625 64.1875C16.5321 64.1749 16.4004 64.1896 16.276 64.2306C16.1515 64.2715 16.0368 64.3378 15.9393 64.4254C15.8418 64.5129 15.7635 64.6197 15.7094 64.7391C15.6553 64.8584 15.6266 64.9877 15.625 65.1188V71.5625C15.6283 73.7993 16.5183 75.9434 18.0999 77.5251C19.6816 79.1067 21.8258 79.9967 24.0625 80H55.9375C58.0476 80.0004 60.0805 79.206 61.6312 77.775C61.7451 77.67 61.8312 77.5384 61.8818 77.392C61.9324 77.2455 61.9459 77.0889 61.9212 76.9359C61.8964 76.783 61.8341 76.6386 61.7399 76.5156C61.6457 76.3927 61.5225 76.295 61.3812 76.2313ZM34.125 6.87501C33.4076 6.85258 32.7098 6.63617 32.1056 6.24879C31.5014 5.86141 31.0135 5.31754 30.6938 4.675L29.1937 1.87501H50.8125L49.3063 4.675C48.9865 5.31754 48.4986 5.86141 47.8944 6.24879C47.2902 6.63617 46.5924 6.85258 45.875 6.87501H34.125ZM46.5625 71.875H33.4375C33.1889 71.875 32.9504 71.7762 32.7746 71.6004C32.5988 71.4246 32.5 71.1861 32.5 70.9375C32.5 70.6889 32.5988 70.4504 32.7746 70.2746C32.9504 70.0988 33.1889 70 33.4375 70H46.5625C46.8111 70 47.0496 70.0988 47.2254 70.2746C47.4012 70.4504 47.5 70.6889 47.5 70.9375C47.5 71.1861 47.4012 71.4246 47.2254 71.6004C47.0496 71.7762 46.8111 71.875 46.5625 71.875Z" fill="#D82028"/>
<path d="M65.927 64.375H68.4033L69.0732 61.875H66.597L65.927 64.375Z" fill="#D82028"/>
<path d="M62.3865 51.4999C59.9401 52.4827 57.8753 54.2271 56.4977 56.4749C56.4769 56.5076 56.4495 56.5357 56.4172 56.5572C56.3849 56.5787 56.3484 56.5933 56.3102 56.5999C55.2201 56.8209 54.0984 56.8381 53.0021 56.6505C52.577 56.5783 52.1402 56.6282 51.7424 56.7944C51.3446 56.9607 51.0021 57.2363 50.7547 57.5895C50.5074 57.9426 50.3653 58.3587 50.3451 58.7893C50.3248 59.22 50.4271 59.6476 50.6402 60.0224C51.6406 61.874 53.0258 63.49 54.7027 64.7618C54.7319 64.782 54.7567 64.8078 54.7758 64.8378C54.7949 64.8677 54.8079 64.9011 54.814 64.9361C55.6933 70.9636 61.3671 75.733 67.2896 75.668C69.557 75.6422 71.7746 74.9997 73.7046 73.8093C75.6346 72.6188 77.204 70.9255 78.2447 68.9108C79.2853 66.8961 79.7579 64.6361 79.6116 62.3733C79.4654 60.1104 78.7059 57.9301 77.4146 56.0661C75.7937 53.7194 73.4259 51.9907 70.697 51.1615C67.9682 50.3324 65.0389 50.4516 62.3865 51.4999ZM72.8127 61.8749H71.0146L70.3452 64.3749H72.1877C72.4363 64.3749 72.6748 64.4736 72.8506 64.6495C73.0264 64.8253 73.1252 65.0637 73.1252 65.3124C73.1252 65.561 73.0264 65.7995 72.8506 65.9753C72.6748 66.1511 72.4363 66.2499 72.1877 66.2499H69.8427L69.2433 68.4855C69.2114 68.6045 69.1564 68.7161 69.0814 68.8138C69.0064 68.9116 68.9129 68.9936 68.8062 69.0552C68.6995 69.1168 68.5817 69.1568 68.4596 69.1729C68.3374 69.189 68.2133 69.1808 68.0943 69.1489C67.9753 69.117 67.8637 69.062 67.7659 68.987C67.6682 68.912 67.5862 68.8185 67.5246 68.7118C67.463 68.6051 67.423 68.4873 67.4069 68.3652C67.3908 68.243 67.3989 68.1189 67.4308 67.9999L67.8996 66.2499H65.4233L64.8171 68.513C64.7852 68.632 64.7302 68.7436 64.6552 68.8413C64.5802 68.9391 64.4866 69.0211 64.3799 69.0827C64.2732 69.1443 64.1555 69.1843 64.0333 69.2004C63.9112 69.2165 63.787 69.2083 63.668 69.1764C63.549 69.1446 63.4374 69.0895 63.3397 69.0145C63.2419 68.9395 63.1599 68.846 63.0983 68.7393C63.0367 68.6326 62.9967 68.5148 62.9806 68.3927C62.9646 68.2705 62.9727 68.1464 63.0046 68.0274L63.4808 66.2499H62.1877C61.9391 66.2499 61.7006 66.1511 61.5248 65.9753C61.349 65.7995 61.2502 65.561 61.2502 65.3124C61.2502 65.0637 61.349 64.8253 61.5248 64.6495C61.7006 64.4736 61.9391 64.3749 62.1877 64.3749H63.9858L64.6552 61.8749H62.8127C62.5641 61.8749 62.3256 61.7761 62.1498 61.6003C61.974 61.4245 61.8752 61.186 61.8752 60.9374C61.8752 60.6887 61.974 60.4503 62.1498 60.2745C62.3256 60.0986 62.5641 59.9999 62.8127 59.9999H65.1577L65.7571 57.7642C65.8215 57.5239 65.9787 57.319 66.1942 57.1946C66.4097 57.0701 66.6658 57.0364 66.9061 57.1008C67.1465 57.1652 67.3514 57.3224 67.4758 57.5379C67.6003 57.7534 67.634 58.0095 67.5696 58.2499L67.1008 59.9999H69.5771L70.1833 57.7367C70.2152 57.6177 70.2702 57.5062 70.3452 57.4084C70.4202 57.3107 70.5138 57.2287 70.6205 57.1671C70.7272 57.1054 70.8449 57.0655 70.9671 57.0494C71.0893 57.0333 71.2134 57.0414 71.3324 57.0733C71.4514 57.1052 71.563 57.1602 71.6607 57.2352C71.7585 57.3102 71.8405 57.4037 71.9021 57.5104C71.9637 57.6171 72.0037 57.7349 72.0198 57.8571C72.0359 57.9792 72.0277 58.1034 71.9958 58.2224L71.5171 59.9999H72.8127C73.0613 59.9999 73.2998 60.0986 73.4756 60.2745C73.6514 60.4503 73.7502 60.6887 73.7502 60.9374C73.7502 61.186 73.6514 61.4245 73.4756 61.6003C73.2998 61.7761 73.0613 61.8749 72.8127 61.8749Z" fill="#D82028"/>
<path d="M53.0301 19.039C51.821 21.7452 51.5037 24.7656 52.1238 27.664C52.1365 27.7257 52.1363 27.7894 52.1231 27.851C52.11 27.9127 52.0843 27.9709 52.0476 28.0221C51.3301 29.0721 50.4239 29.9798 49.3751 30.699C48.9933 30.9621 48.6933 31.3274 48.5096 31.7532C48.3258 32.1789 48.2658 32.6478 48.3363 33.1061C48.4068 33.5644 48.6051 33.9936 48.9083 34.3444C49.2115 34.6952 49.6074 34.9535 50.0507 35.0896C52.2841 35.813 54.6475 36.0445 56.9788 35.7684C57.0318 35.7606 57.0858 35.7633 57.1377 35.7763C57.1896 35.7894 57.2384 35.8126 57.2813 35.8446C59.7486 37.7238 62.7606 38.7483 65.862 38.7634C76.1351 38.8102 83.0388 27.5696 78.2913 18.3459C72.9582 7.98837 57.757 8.33899 53.0301 19.039ZM66.7957 31.024C66.5341 31.1724 66.2384 31.2504 65.9376 31.2504C65.6368 31.2504 65.3411 31.1724 65.0795 31.024C61.4126 28.9396 59.3295 26.3515 59.4182 23.0709C59.416 22.5878 59.5089 22.109 59.6918 21.6618C59.8746 21.2146 60.1437 20.8078 60.4837 20.4646C60.8238 20.1215 61.2281 19.8486 61.6736 19.6617C62.119 19.4748 62.597 19.3775 63.0801 19.3752C63.6302 19.375 64.1732 19.4995 64.6681 19.7396C65.1631 19.9796 65.5971 20.3288 65.9376 20.7609C66.278 20.3288 66.7121 19.9796 67.207 19.7396C67.702 19.4995 68.245 19.375 68.7951 19.3752C69.2782 19.3775 69.7561 19.4748 70.2016 19.6617C70.6471 19.8486 71.0514 20.1215 71.3914 20.4646C71.7315 20.8078 72.0006 21.2146 72.1834 21.6618C72.3662 22.109 72.4592 22.5878 72.457 23.0709C72.5488 26.3515 70.4626 28.9377 66.7957 31.024Z" fill="#D82028"/>
<path d="M36.5626 49.6202C36.6007 49.5091 36.6604 49.4067 36.7382 49.3188C36.8161 49.231 36.9106 49.1594 37.0163 49.1083C39.8042 47.6645 42.2465 45.6345 44.1757 43.1577C44.5306 42.7165 44.754 42.1842 44.8202 41.6219C44.8865 41.0596 44.7929 40.49 44.5503 39.9785C44.3076 39.4669 43.9257 39.0341 43.4484 38.7296C42.971 38.4251 42.4175 38.2614 41.8513 38.257C40.0833 38.2478 38.3324 37.9104 36.6876 37.262C36.5644 37.2156 36.452 37.1445 36.3573 37.053C36.2626 36.9616 36.1876 36.8517 36.137 36.7302C34.6529 33.0659 32.043 29.9679 28.6838 27.8833C15.472 19.602 -1.47179 30.5945 0.273839 46.0127C1.30571 55.1252 9.73571 62.6527 18.8251 62.4627C26.4938 62.6302 34.232 57.1445 36.5626 49.6202ZM14.3751 51.7008C14.0907 51.8674 13.7671 51.9552 13.4376 51.9552H10.9376C10.4403 51.9552 9.96339 51.7576 9.61176 51.406C9.26013 51.0544 9.06259 50.5775 9.06259 50.0802V40.7052C9.06259 40.2079 9.26013 39.731 9.61176 39.3793C9.96339 39.0277 10.4403 38.8302 10.9376 38.8302H13.4376C13.7666 38.8296 14.09 38.9158 14.3751 39.0802V51.7008ZM16.2501 50.8608V39.632C18.0863 37.9283 19.2676 34.4595 20.0545 32.8245C21.4395 29.9445 24.2295 33.8077 23.5476 35.887C23.312 36.607 22.8126 38.8245 22.8126 38.8245C24.3044 38.8245 25.7352 39.4172 26.7901 40.4721C27.845 41.527 28.4376 42.9577 28.4376 44.4495V46.3246C28.4376 47.8164 27.845 49.2471 26.7901 50.302C25.7352 51.3569 24.3044 51.9496 22.8126 51.9496H19.3226C18.7405 51.9494 18.1663 51.8137 17.6457 51.5533L16.2501 50.8608Z" fill="#D82028"/>
</g>
<defs>
<clipPath id="clip0_574_176">
<rect width="80" height="80" fill="white"/>
</clipPath>
</defs>
</svg>
