<svg width="80" height="80" viewBox="0 0 80 80" fill="none" xmlns="http://www.w3.org/2000/svg">
<path d="M7.99902 29.5352V63.7213C7.99902 67.1837 10.8157 70.0004 14.2781 70.0004H20.5572V29.5352H7.99902Z" fill="#D82028"/>
<path d="M65.9061 10.0005H14.2781C10.8157 10.0005 7.99902 12.8172 7.99902 16.2796V25.3494H72.1852V16.2796C72.1852 12.8172 69.3685 10.0005 65.9061 10.0005ZM18.4641 19.7679C17.3083 19.7679 16.3711 18.8308 16.3711 17.6749C16.3711 16.519 17.3081 15.5818 18.4641 15.5818C19.6201 15.5818 20.5572 16.5189 20.5572 17.6749C20.5572 18.8307 19.6201 19.7679 18.4641 19.7679ZM26.8363 19.7679C25.6804 19.7679 24.7432 18.8308 24.7432 17.6749C24.7432 16.519 25.6803 15.5818 26.8363 15.5818C27.9923 15.5818 28.9293 16.5189 28.9293 17.6749C28.9293 18.8307 27.9921 19.7679 26.8363 19.7679ZM35.2083 19.7679C34.0525 19.7679 33.1152 18.8308 33.1152 17.6749C33.1152 16.519 34.0523 15.5818 35.2083 15.5818C36.3642 15.5818 37.3014 16.5189 37.3014 17.6749C37.3014 18.8307 36.3643 19.7679 35.2083 19.7679Z" fill="#D82028"/>
<path d="M24.7441 29.5352V70.0004H65.907C69.3694 70.0004 72.1861 67.1837 72.1861 63.7213V29.5352H24.7441ZM61.721 58.8375H35.2092C34.0538 58.8375 33.1162 57.9007 33.1162 56.7444C33.1162 55.5882 34.0538 54.6514 35.2092 54.6514H61.7209C62.8764 54.6514 63.8139 55.5882 63.8139 56.7444C63.8139 57.9007 62.8765 58.8375 61.721 58.8375ZM61.721 50.4654H35.2092C34.0538 50.4654 33.1162 49.5285 33.1162 48.3723C33.1162 47.2161 34.0538 46.2792 35.2092 46.2792H61.7209C62.8764 46.2792 63.8139 47.2161 63.8139 48.3723C63.8139 49.5285 62.8765 50.4654 61.721 50.4654ZM61.721 42.0933H35.2092C34.0538 42.0933 33.1162 41.1565 33.1162 40.0003C33.1162 38.844 34.0538 37.9072 35.2092 37.9072H61.7209C62.8764 37.9072 63.8139 38.844 63.8139 40.0003C63.8139 41.1565 62.8765 42.0933 61.721 42.0933Z" fill="#D82028"/>
</svg>
