<svg width="80" height="80" viewBox="0 0 80 80" fill="none" xmlns="http://www.w3.org/2000/svg">
<g clip-path="url(#clip0_574_544)">
<path d="M74.1059 67.6824H72.7294V33.306C71.447 32.753 70.3529 31.8354 69.5882 30.6825C68.3176 32.6001 66.1412 33.8707 63.6706 33.8707C61.2 33.8707 59.0235 32.6001 57.7529 30.6825C56.4823 32.6001 54.3059 33.8707 51.8353 33.8707C49.3647 33.8707 47.1882 32.6001 45.9176 30.6825C44.647 32.6001 42.4706 33.8707 40 33.8707C37.5294 33.8707 35.3529 32.6001 34.0823 30.6825C32.8117 32.6001 30.647 33.8707 28.1765 33.8707C25.6941 33.8707 23.5059 32.5883 22.2353 30.6472C20.9529 32.5413 18.8 33.7883 16.3412 33.7883C13.8706 33.7883 11.6941 32.5177 10.4235 30.6001C9.6588 31.753 8.56469 32.6825 7.27057 33.2236V67.6824H5.8941C4.47057 67.6824 3.31763 68.8354 3.31763 70.2589V75.153H76.6823V70.2589C76.6823 68.8354 75.5294 67.6824 74.1059 67.6824ZM34.6353 67.6824H15.2823V43.8119C15.2823 42.2119 16.5765 40.906 18.1882 40.906H31.7294C33.3294 40.906 34.6353 42.2119 34.6353 43.8119V67.6824ZM63.3765 56.4589C63.3765 57.4942 62.5412 58.3295 61.5059 58.3295H45.7294C44.6941 58.3295 43.847 57.4942 43.847 56.4589V42.1883C43.847 41.153 44.6941 40.3177 45.7294 40.3177H61.5059C62.5412 40.3177 63.3765 41.153 63.3765 42.1883V56.4589Z" fill="#D82028"/>
<path d="M70.4234 23.5176H79.5646L75.9528 15.8705C75.5646 15.047 74.7411 14.5176 73.8234 14.5176H67.3999L70.4234 23.5176Z" fill="#D82028"/>
<path d="M12.6117 14.4355H6.1882C5.28232 14.4355 4.44702 14.965 4.05879 15.7885L0.447021 23.4355H9.57643L12.6117 14.4355Z" fill="#D82028"/>
<path d="M70.7646 25.8706V26.7765C70.7646 29.3883 72.8823 31.5177 75.5058 31.5177C78.1176 31.5177 80.2352 29.3883 80.2352 26.7765V25.8706H70.7646Z" fill="#D82028"/>
<path d="M63.6706 31.5177C66.2824 31.5177 68.4118 29.3883 68.4118 26.7765V25.8706H58.9294V26.7765C58.9294 29.3883 61.0589 31.5177 63.6706 31.5177Z" fill="#D82028"/>
<path d="M54.9528 16.7764L54.494 14.5176H46.4116L47.0234 23.5176H56.3175L54.9528 16.7764Z" fill="#D82028"/>
<path d="M11.5999 26.6941C11.5999 29.3059 13.7293 31.4353 16.341 31.4353C18.9528 31.4353 21.0822 29.3059 21.0822 26.6941V25.8706H11.5999V26.6941Z" fill="#D82028"/>
<path d="M64.9176 14.5176H56.894L58.2587 21.2588L58.7176 23.5176H67.9411L64.9176 14.5176Z" fill="#D82028"/>
<path d="M23.4353 26.7765C23.4353 29.3883 25.553 31.5177 28.1765 31.5177C30.7882 31.5177 32.9059 29.3883 32.9059 26.7765V25.8706H23.4353V26.7765Z" fill="#D82028"/>
<path d="M9.247 26.6945V25.7886H-0.235352V26.6945C-0.235352 29.3062 1.89406 31.4356 4.50582 31.4356C7.11759 31.4356 9.247 29.3062 9.247 26.6945Z" fill="#D82028"/>
<path d="M23.1058 14.5176H15.094L12.094 23.4352H21.3058L23.1058 14.5176Z" fill="#D82028"/>
<path d="M35.9528 14.5176L35.3411 23.5176H44.6587L44.0587 14.5176H35.9528Z" fill="#D82028"/>
<path d="M51.8352 31.5177C54.4469 31.5177 56.5763 29.3883 56.5763 26.7765V25.8706H47.094V26.7765C47.094 29.3883 49.2234 31.5177 51.8352 31.5177Z" fill="#D82028"/>
<path d="M33.5882 14.5176H25.5176L23.6941 23.5176H32.9882L33.5882 14.5176Z" fill="#D82028"/>
<path d="M35.2588 26.7765C35.2588 29.3883 37.3882 31.5177 40 31.5177C42.6117 31.5177 44.7411 29.3883 44.7411 26.7765V25.8706H35.2588V26.7765Z" fill="#D82028"/>
<path d="M15.8705 12.1648H72.7293V9.77658C72.7293 7.05893 70.5293 4.84717 67.8117 4.84717H12.1999C9.48227 4.84717 7.27051 7.05893 7.27051 9.77658V12.0825H15.894L15.8705 12.1648Z" fill="#D82028"/>
</g>
<defs>
<clipPath id="clip0_574_544">
<rect width="80" height="80" fill="white"/>
</clipPath>
</defs>
</svg>
