<svg width="80" height="80" viewBox="0 0 80 80" fill="none" xmlns="http://www.w3.org/2000/svg">
<path d="M27.9547 61.0569C27.9165 61.4374 27.9494 61.8347 28.0881 62.2285C28.4267 63.1778 29.2214 63.9511 30.1627 64.2427C31.0374 64.5191 31.9076 64.3351 32.1716 64.048L33.9965 62.0898C34.5245 61.5254 34.6578 60.6231 34.3476 59.7476C33.5841 58.2845 32.561 57.7565 31.2507 57.52L27.9547 61.0569Z" fill="#D82028"/>
<path d="M25.5137 51.2657L22.3244 54.6861C21.6764 55.391 21.4906 56.4746 21.8524 57.5128C22.2364 58.6097 23.1528 59.5022 24.2497 59.8355C25.288 60.1466 26.3297 59.9048 26.9822 59.2106L29.9351 56.0435C30.5875 55.3404 30.7688 54.2621 30.4071 53.2239C30.0231 52.1217 29.1013 51.2328 28.0097 50.9013C27.1386 50.623 26.1164 50.6124 25.5137 51.2657Z" fill="#D82028"/>
<path d="M19.191 45.6375L16.2461 48.7992C15.5972 49.4988 15.4159 50.5859 15.7741 51.6277C16.1581 52.721 17.0746 53.6135 18.1715 53.9468C19.2079 54.2623 20.2603 54.0161 20.5883 53.6686L23.8577 50.1601C24.5101 49.4552 24.6914 48.3717 24.3297 47.3352C23.9439 46.2348 23.0275 45.3459 21.9306 45.0161C20.9217 44.6872 19.8052 44.9797 19.191 45.6375Z" fill="#D82028"/>
<path d="M13.4302 39.4044L10.1662 42.9146C9.51379 43.6177 9.33246 44.6959 9.69424 45.7288C10.0747 46.8346 10.9965 47.7235 12.0933 48.0568C13.1298 48.3661 14.1805 48.1261 14.5049 47.7741L17.7778 44.2657V44.2621C18.4302 43.5679 18.6116 42.4879 18.2498 41.4515C17.8711 40.3457 16.9493 39.4568 15.8525 39.127C15.0142 38.8382 14 38.7884 13.4302 39.4044Z" fill="#D82028"/>
<path d="M55.8054 18.4702C53.6943 19.6507 50.7601 19.8622 47.9023 20.0675C45.7405 20.2151 43.5103 20.3715 41.9076 20.9635L32.9965 24.2516C32.9361 24.2755 32.8747 24.2898 32.8107 24.2987C32.3805 24.3662 31.9823 24.424 31.625 24.4738C29.4552 24.7796 29.2045 24.8729 28.9547 25.5155C28.7272 26.1093 28.977 26.9653 29.5939 27.6924C30.097 28.2898 32.0659 30.1547 36.1165 29.1956L41.1912 28.5253C44.033 28.1591 46.3112 30.0115 48.1307 31.5067L61.7779 42.424L61.7885 42.4187C64.4863 41.2898 67.297 39.8213 69.6863 36.9431L55.8054 18.4702Z" fill="#D82028"/>
<path d="M37.0275 17.8073C36.2186 17.882 35.2915 17.9842 34.3191 18.0855C28.9404 18.6598 25.9582 18.8855 24.4409 18.6046L10.4773 36.7798C10.9911 37.266 11.4169 37.7709 11.76 38.3175C12.9271 37.1229 14.6906 36.6962 16.408 37.2153C18.0933 37.7238 19.5004 39.09 20.0889 40.7851C20.3386 41.5024 20.4169 42.2384 20.3528 42.9433C21.0417 42.8464 21.7697 42.8864 22.4862 43.1051C24.1671 43.61 25.5795 44.9798 26.1635 46.6749C26.4169 47.3886 26.4968 48.1229 26.4364 48.8278C27.1253 48.7309 27.8533 48.7718 28.5697 48.9949C30.2471 49.5033 31.6533 50.8695 32.2417 52.5558C32.6115 53.6251 32.6257 54.7255 32.3253 55.7122C32.4969 55.7451 32.6728 55.7869 32.848 55.842C34.3528 56.3086 35.6311 57.5451 36.1813 59.0695C36.7057 60.5451 36.4782 62.0953 35.6169 63.2082L38.0942 65.1895C38.7004 65.6704 39.584 65.7229 40.4089 65.3229C41.3031 64.8891 41.9786 64.0082 42.1777 63.0224C42.2613 62.6109 42.2337 62.2118 42.1395 61.842L38.9973 59.3282C38.5751 58.9895 38.5004 58.3646 38.8302 57.9309C39.1635 57.5006 39.7751 57.4206 40.2 57.7593L43.9777 60.7869C44.3529 61.0873 45.4275 61.1673 46.4133 60.7033C47.4497 60.2082 48.2329 59.1878 48.4497 58.0491C48.6577 56.9726 48.3244 55.9291 47.5831 55.3318L44.1662 52.5975C43.7404 52.2589 43.6657 51.6322 43.9991 51.2038C44.3289 50.7682 44.944 50.6882 45.3653 51.0322L50.3324 55.0047C51.0791 55.5984 52.152 55.6802 53.1431 55.218C54.1706 54.7264 54.9537 53.7078 55.176 52.5566C55.384 51.4802 55.0506 50.4402 54.3013 49.8375L49.3324 45.8704C48.9066 45.5282 48.832 44.9033 49.1653 44.466C49.4986 44.0375 50.1102 43.9629 50.5369 44.3006C50.5369 44.3006 58.0817 50.3335 58.0871 50.3335C58.4622 50.6286 59.5315 50.7122 60.5129 50.2429C61.5511 49.7584 62.3289 48.7398 62.5546 47.5922C62.7591 46.514 62.4257 45.4669 61.68 44.8749L46.9129 33.0571C45.2186 31.6678 43.4684 30.2286 41.4355 30.5015L36.4631 31.1504C33.1111 31.9558 29.9493 31.1593 28.1208 28.9975C27.0186 27.6953 26.6435 26.0846 27.1386 24.7895C27.8328 22.9931 29.1626 22.8073 31.3573 22.498C31.6853 22.4562 32.0382 22.4046 32.4266 22.3433L41.2462 19.09C41.8195 18.8766 42.4542 18.7291 43.1111 18.5984C40.8435 17.7211 39.2 17.6686 37.0275 17.8073Z" fill="#D82028"/>
<path d="M17.8614 14.3628C16.2552 14.241 14.7885 15.4517 12.6774 18.201L7.27829 25.2339C5.3254 27.7708 4.59384 29.3486 4.75562 30.6855C4.8854 31.7842 5.64984 32.8624 6.40807 33.4704L8.96896 35.5157L22.8756 17.4153L21.0756 15.9744C19.8383 14.9877 18.825 14.4375 17.8614 14.3628Z" fill="#D82028"/>
<path d="M62.455 14.3438C61.4915 14.4043 60.4693 14.943 59.2221 15.9154L57.4026 17.327L71.1164 35.575L72.8888 34.1963C74.4221 33.007 75.2044 31.943 75.3475 30.8452C75.5244 29.5118 74.8159 27.9216 72.8941 25.3518L67.583 18.2514C65.5137 15.4736 64.0657 14.2407 62.455 14.3438Z" fill="#D82028"/>
</svg>
