<svg width="40" height="40" viewBox="0 0 40 40" fill="none" xmlns="http://www.w3.org/2000/svg">
<path d="M36.4897 16.6077L20.8891 1.00475C19.969 0.0869379 18.4806 0.0977973 17.5726 1.00358C16.6594 1.91913 16.6594 3.40569 17.5726 4.32007L33.1755 19.9219C34.0896 20.836 35.5756 20.836 36.4897 19.9219C37.4063 19.0053 37.4063 17.5241 36.4897 16.6077Z" fill="#D82028"/>
<path d="M16.4152 6.47705L16.2978 7.06565C15.4707 11.203 13.4605 15.1336 10.7417 18.3193L19.2298 26.8073C22.4151 24.089 26.2915 22.0249 30.429 21.1968L31.0187 21.0793L16.4152 6.47705Z" fill="#D82028"/>
<path d="M9.18544 20.0774L3.38442 25.8772C2.01371 27.248 2.00801 29.4733 3.38442 30.8497L6.69864 34.1639C8.06935 35.5346 10.2947 35.5402 11.6711 34.1639L17.4716 28.3634L9.18544 20.0774ZM10.014 29.1926C9.5563 29.6504 8.81466 29.6504 8.35693 29.1926C7.89919 28.7349 7.89919 27.9933 8.35693 27.5355L10.014 25.8784C10.4718 25.4207 11.2134 25.4207 11.6712 25.8784C12.1289 26.3362 12.1289 27.0778 11.6712 27.5355L10.014 29.1926Z" fill="#D82028"/>
<path d="M22.3645 34.7874L23.9586 33.1932C25.3351 31.817 25.3306 29.5916 23.9587 28.222L22.7747 27.0371C22.1202 27.4767 21.4952 27.9544 20.8875 28.4641L22.3016 29.8802C22.7583 30.3345 22.7615 31.0739 22.3016 31.5362L20.6811 33.1567L18.2997 30.8494L14.9854 34.1638L20.3023 39.3159C21.2097 40.2256 22.6994 40.2307 23.6154 39.3147C24.5297 38.4003 24.5297 36.9138 23.6154 35.9993L22.3645 34.7874Z" fill="#D82028"/>
<path d="M27.0989 0C26.4511 0 25.927 0.524142 25.927 1.17188V3.51563C25.927 4.16337 26.4511 4.68751 27.0989 4.68751C27.7466 4.68751 28.2708 4.16337 28.2708 3.51563V1.17188C28.2708 0.524142 27.7466 0 27.0989 0Z" fill="#D82028"/>
<path d="M36.4739 9.375H34.1301C33.4824 9.375 32.9583 9.89914 32.9583 10.5469C32.9583 11.1946 33.4824 11.7188 34.1301 11.7188H36.4739C37.1216 11.7188 37.6458 11.1946 37.6458 10.5469C37.6458 9.89914 37.1216 9.375 36.4739 9.375Z" fill="#D82028"/>
<path d="M34.9587 2.68705C34.5009 2.22932 33.7593 2.22932 33.3016 2.68705L30.9578 5.03081C30.5001 5.48854 30.5001 6.23018 30.9578 6.68792C31.4155 7.14565 32.1572 7.14573 32.6149 6.68792L34.9587 4.34416C35.4164 3.88643 35.4164 3.14479 34.9587 2.68705Z" fill="#D82028"/>
</svg>
