<svg width="40" height="40" viewBox="0 0 40 40" fill="none" xmlns="http://www.w3.org/2000/svg">
<g clip-path="url(#clip0_574_271)">
<path d="M10.0297 21.2161H8.23584C7.76526 21.2161 7.34045 21.4962 7.1543 21.9277L2.18848 33.4905L13.9817 27.4673C12.5699 25.5139 11.1732 23.3593 10.0297 21.2161Z" fill="#D82028"/>
<path d="M32.8454 21.9277C32.6595 21.4962 32.2344 21.2161 31.7642 21.2161H29.9703C27.8109 25.2627 24.6649 29.4445 22.6635 31.7452C21.256 33.3596 18.742 33.3578 17.3367 31.7452C17.1929 31.5801 16.4425 30.7113 15.4089 29.3752L13.2827 30.4617L21.3253 38.4887L36.5646 30.5883L32.8454 21.9277Z" fill="#D82028"/>
<path d="M0.737606 36.8699L0.0961263 38.3638C-0.235905 39.1368 0.332943 40.0001 1.17736 40.0001H18.447C18.555 39.9199 18.5562 39.9247 19.136 39.6241L11.0815 31.5864L0.737606 36.8699Z" fill="#D82028"/>
<path d="M39.9038 38.3636L37.4941 32.7527L23.5146 40H38.8226C39.6652 40 40.2365 39.1382 39.9038 38.3636Z" fill="#D82028"/>
<path d="M21.1764 10.5722C21.1764 9.92462 20.6484 9.39819 19.9999 9.39819C19.3511 9.39819 18.8235 9.92462 18.8235 10.5722C18.8235 11.2195 19.3511 11.7462 19.9999 11.7462C20.6484 11.7462 21.1764 11.2195 21.1764 10.5722Z" fill="#D82028"/>
<path d="M20.8879 30.1264C21.284 29.6717 30.5879 18.9093 30.5879 11.5113C30.5879 -3.74387 9.41235 -3.93002 9.41235 11.5113C9.41235 18.9093 18.7162 29.6717 19.1124 30.1264C19.5814 30.6644 20.4197 30.6638 20.8879 30.1264ZM16.4708 10.5722C16.4708 8.6301 18.054 7.0502 20.0001 7.0502C21.9459 7.0502 23.5292 8.6301 23.5292 10.5722C23.5292 12.5141 21.9459 14.094 20.0001 14.094C18.054 14.094 16.4708 12.5141 16.4708 10.5722Z" fill="#D82028"/>
</g>
<defs>
<clipPath id="clip0_574_271">
<rect width="40" height="40" fill="white"/>
</clipPath>
</defs>
</svg>
