<svg width="37" height="40" viewBox="0 0 37 40" fill="none" xmlns="http://www.w3.org/2000/svg">
<path d="M21.3482 1.62395C21.158 1.30686 20.9281 1.0294 20.6585 0.807439C20.3494 0.545838 20.0085 0.347655 19.6518 0.212891L19.5012 0.173255C18.4627 -0.167619 17.2974 -0.00907297 16.3619 0.680602C16.029 0.926348 15.7357 1.25929 15.5058 1.64773C6.71442 3.05879 0 10.669 0 19.8567C0 29.0445 6.89675 36.8608 15.8625 38.1212C16.251 39.2152 17.2894 40 18.5102 40C19.731 40 20.7774 39.2073 21.1659 38.1054C30.0603 36.7894 36.8857 29.1237 36.8857 19.8647C36.8857 10.6056 30.1475 3.03501 21.3403 1.64773L21.3482 1.62395Z" fill="#D82028"/>
<path d="M1.90246 20.0479C1.90246 28.213 7.81622 34.9988 15.6008 36.3543C15.5453 36.2513 15.4898 36.1482 15.4502 36.0373C15.4185 35.9659 15.363 35.847 15.1569 35.6805C15.0538 35.5933 14.9508 35.4982 14.8477 35.411C14.8081 35.3793 14.7685 35.3397 14.7288 35.3079L14.5624 35.2366C14.4276 35.1811 14.2928 35.1177 14.166 35.0543C13.9282 34.9354 13.619 34.6896 13.4525 34.214L13.3812 34.0554C13.3415 33.9762 13.3019 33.8969 13.2702 33.8097C13.1275 33.453 12.961 32.9615 12.961 32.3907C8.2443 30.282 4.94654 25.5574 4.94654 20.0558C4.94654 14.8634 7.87964 10.3607 12.1683 8.10146C12.1683 8.00633 12.1683 7.9112 12.1762 7.824C12.2159 7.18189 12.6043 6.66662 13.2464 6.41294C13.3257 6.38123 13.397 6.34952 13.4763 6.32574C13.6586 5.96901 13.9678 5.58058 14.5227 5.27934C14.5861 5.24763 14.6813 5.19214 14.8002 5.1525C14.9191 5.00981 15.038 4.86712 15.1728 4.72443C15.0776 4.43112 15.038 4.14573 15.0221 3.86035C7.52291 5.43788 1.89453 12.0889 1.89453 20.0558L1.90246 20.0479Z" fill="white"/>
<path d="M21.8551 3.84082C21.8393 4.11828 21.7996 4.40366 21.7045 4.69697C21.8472 4.83966 21.974 4.99028 22.1009 5.1409C22.6796 5.33115 23.1393 5.72752 23.4168 6.29035C23.5674 6.34585 23.6943 6.40927 23.8052 6.46476L23.9162 6.52025C24.1699 6.63916 24.4949 6.8849 24.6455 7.40018C24.701 7.59043 24.7486 7.82825 24.7486 8.09778C29.0452 10.365 31.9783 14.8598 31.9783 20.0521C31.9783 25.5061 28.7439 30.1912 24.0906 32.3315C24.0906 32.4821 24.0906 32.6407 24.0589 32.7913C23.9955 33.1956 23.8845 33.5761 23.718 33.9249C23.6943 33.9725 23.6705 34.028 23.6546 34.0755C23.615 34.1707 23.5753 34.2737 23.5278 34.3688C23.4406 34.5353 23.29 34.7652 23.0363 34.9396C22.854 35.0585 22.6558 35.1854 22.41 35.2646C22.3704 35.2805 22.3149 35.3043 22.2436 35.3598L22.1801 35.4232C22.0295 35.5579 21.871 35.7006 21.7362 35.8512C21.7124 35.875 21.6807 35.9226 21.649 35.9939C21.5935 36.1129 21.538 36.2238 21.4746 36.3427C29.1879 34.9317 35.0303 28.1776 35.0303 20.0601C35.0303 11.9425 29.3861 5.41835 21.871 3.84875L21.8551 3.84082Z" fill="white"/>
<path d="M15.5059 5.88687C15.4108 5.99785 15.3236 6.08505 15.173 6.09298C15.1175 6.09298 15.062 6.12469 15.0144 6.15639C14.6735 6.33872 14.4199 6.60032 14.3089 6.98083C14.2772 7.09182 14.2217 7.13938 14.1107 7.17109C13.9442 7.21865 13.7857 7.28207 13.6351 7.34549C13.5082 7.39305 13.4052 7.4644 13.3338 7.5516C13.2625 7.6388 13.2149 7.74185 13.207 7.87662C13.1753 8.36018 13.2149 8.83582 13.5796 9.2084C13.6509 9.27975 13.6985 9.35902 13.7064 9.46208C13.7381 9.81088 13.8967 10.1121 14.1028 10.3896C14.1979 10.5164 14.2296 10.6353 14.2296 10.7859C14.2296 15.7801 14.2455 20.7664 14.2534 25.7606C14.2534 27.5839 14.2613 29.4072 14.2692 31.2384C14.2692 31.3176 14.2692 31.4128 14.2217 31.4762C14.1028 31.6664 14.0393 31.8646 13.9997 32.0787C13.9521 32.3323 13.968 32.5702 14.0156 32.808C14.0552 33.0141 14.1186 33.2123 14.2058 33.4025C14.2058 33.4025 14.2058 33.4025 14.2058 33.4104C14.2534 33.5294 14.3168 33.6403 14.3723 33.7592C14.3881 33.7989 14.404 33.8306 14.4199 33.8702C14.4595 33.9891 14.5308 34.0843 14.6339 34.1398C14.8004 34.227 14.9748 34.2983 15.1492 34.3776C15.2047 34.4014 15.2602 34.4172 15.2998 34.4569C15.4663 34.5995 15.6248 34.7581 15.7992 34.8929C16.0529 35.1069 16.2669 35.3447 16.3938 35.6618C16.5206 35.971 16.7108 36.2167 17.0121 36.3673C17.0121 36.3673 17.0121 36.3753 17.0121 36.3832C16.9804 36.4307 16.9487 36.4862 16.9249 36.5417C16.798 36.7875 16.7188 37.0729 16.7188 37.3741C16.7188 37.7784 16.8535 38.151 17.0834 38.4522C17.4164 38.8961 17.9317 39.1815 18.5262 39.1815C19.1207 39.1815 19.6519 38.8882 19.9769 38.4364C20.1989 38.1351 20.3336 37.7705 20.3336 37.3741C20.3336 37.0729 20.2544 36.7875 20.1196 36.5338C20.0879 36.4783 20.0562 36.4228 20.0245 36.3673C20.3891 36.2088 20.5635 35.9075 20.7141 35.5746C20.7776 35.424 20.8648 35.2813 20.9757 35.1624C21.1581 34.9642 21.3562 34.7898 21.5544 34.6075C21.713 34.4648 21.8794 34.3617 22.0856 34.2983C22.2203 34.2587 22.3472 34.1715 22.4661 34.0922C22.5295 34.0526 22.577 33.9812 22.6088 33.9178C22.6801 33.7751 22.7277 33.6324 22.799 33.4897C22.91 33.2598 22.9813 33.0141 23.0289 32.7683C23.0289 32.7287 23.0527 32.6891 23.0527 32.6494C23.1082 32.2689 23.0606 31.9043 22.8783 31.5634C22.8069 31.4365 22.7832 31.3176 22.7832 31.1749C22.7673 27.2668 22.7435 23.3507 22.7277 19.4425C22.7118 16.5412 22.7118 13.6318 22.696 10.7304C22.696 10.6036 22.7277 10.5085 22.8069 10.4054C23.0289 10.12 23.1875 9.79502 23.2271 9.43037C23.235 9.33524 23.2667 9.27182 23.3301 9.2084C23.5204 9.02608 23.6314 8.80411 23.6631 8.54251C23.671 8.45531 23.6948 8.36018 23.7107 8.27298C23.7582 8.0748 23.7107 7.88454 23.6631 7.69429C23.6472 7.64673 23.6314 7.60709 23.6076 7.56745C23.5759 7.51989 23.5363 7.48025 23.4808 7.44854C23.3064 7.36134 23.132 7.25829 22.9496 7.21073C22.7356 7.15523 22.6325 7.03632 22.5453 6.83021C22.3789 6.44178 22.0856 6.16432 21.6575 6.07712C21.5624 6.05334 21.4989 6.00578 21.4355 5.93443C21.166 5.60148 20.8885 5.26854 20.5239 5.03072C20.508 5.01486 20.4922 4.99108 20.4763 4.97523C20.7379 4.53922 20.8489 4.10322 20.8568 3.67515C20.8727 2.92206 20.5318 2.23238 20.0165 1.79638C19.961 1.74882 19.8976 1.70918 19.8342 1.66954C18.9939 1.075 17.8762 1.075 17.0279 1.66954C17.0121 1.67747 16.9962 1.6854 16.9804 1.70125C16.4413 2.09762 16.0212 2.83486 16.0291 3.67515C16.0291 4.0953 16.1401 4.53923 16.4096 4.99108C16.3938 5.00694 16.3858 5.02279 16.37 5.03072C16.0212 5.26061 15.7596 5.5777 15.498 5.89479L15.5059 5.88687ZM19.6281 37.6436C19.6122 37.715 19.5726 37.7863 19.5409 37.8577C19.3665 38.2857 19.0415 38.476 18.5896 38.4681C18.0823 38.4681 17.5908 38.0479 17.4639 37.5168C17.3847 37.168 17.4639 36.8509 17.6621 36.5734C17.678 36.5497 17.6938 36.5179 17.7176 36.4942C17.7731 36.4228 17.8365 36.399 17.9396 36.399C18.3359 36.407 18.7323 36.399 19.1366 36.399C19.2079 36.399 19.2634 36.399 19.311 36.4545C19.3427 36.4862 19.3665 36.5259 19.3982 36.5655C19.5647 36.7795 19.6757 37.0174 19.6915 37.2948C19.6915 37.4058 19.6598 37.5247 19.6281 37.6357V37.6436ZM20.2385 35.1624C20.1037 35.4953 19.8104 35.638 19.4933 35.749C19.2159 35.8441 18.9305 35.8441 18.6372 35.8362C18.2963 35.8283 17.9475 35.86 17.6066 35.7649C17.2023 35.6539 16.8932 35.4478 16.7505 35.0435C16.7029 34.9246 16.6633 34.7977 16.6157 34.6788C17.2499 34.6947 17.8841 34.7184 18.5183 34.7184C19.1525 34.7184 19.7866 34.6867 20.4367 34.663C20.3653 34.8374 20.3019 34.9959 20.2385 35.1624ZM22.4661 32.7604C22.4502 32.8318 22.4264 32.9031 22.4026 32.9744C22.3709 33.0616 22.3472 33.1568 22.3234 33.244C22.2679 33.4818 22.1093 33.5769 21.8953 33.6483C21.3562 33.8227 20.8093 33.9416 20.2543 34.0129C19.5647 34.1001 18.875 34.1715 18.1853 34.1398C17.1865 34.0922 16.1876 33.9971 15.2284 33.6879C14.8559 33.569 14.8559 33.569 14.7132 33.2043C14.6894 33.1409 14.6735 33.0696 14.6498 33.0062C14.6339 32.9507 14.618 32.9031 14.6022 32.8555C14.5784 32.7763 14.5784 32.6891 14.5546 32.586C14.618 32.6019 14.6577 32.6098 14.6973 32.6256C15.1333 32.7604 15.5614 32.9269 16.0053 33.0299C16.6157 33.1726 17.242 33.2281 17.8762 33.2202C18.5341 33.2123 19.2 33.2202 19.858 33.1964C20.1592 33.1885 20.4684 33.1092 20.7696 33.0775C21.3166 33.0141 21.8081 32.7842 22.3234 32.6256C22.3709 32.6098 22.4185 32.5939 22.4899 32.5702C22.4899 32.6494 22.4898 32.7208 22.4661 32.7763V32.7604ZM20.6824 26.0539C20.4208 26.2838 20.1592 26.5137 19.8897 26.7277C19.2159 27.2747 18.6055 27.8851 18.0347 28.5352C17.7255 28.884 17.4084 29.2328 17.0993 29.5816C16.7584 29.9541 16.4492 30.3426 16.1718 30.7707C15.9974 31.0402 15.8151 31.3097 15.6327 31.5792C15.4425 31.5396 15.2522 31.492 15.062 31.4445C14.9906 31.4286 14.9193 31.389 14.84 31.3573C14.84 30.7231 14.84 30.0968 14.84 29.4627C14.84 28.4559 14.84 28.1546 14.84 29.0108C14.9114 28.9077 14.9827 28.8126 15.062 28.7175C15.7199 27.9644 16.37 27.2034 17.0517 26.4661C17.5432 25.9429 18.0823 25.4594 18.5975 24.9599C19.3586 24.2148 20.1592 23.5251 20.9995 22.883C21.3087 22.6452 21.6337 22.4232 21.9587 22.2012C22.0538 22.1378 22.1252 22.0586 22.1807 21.9714V22.4232C22.1807 23.2397 22.1807 24.0562 22.1886 24.8727C21.6733 25.2453 21.1581 25.6179 20.6904 26.046L20.6824 26.0539ZM22.2045 29.4072C22.2045 29.9541 22.2045 30.5091 22.2045 31.056C22.2045 31.1432 22.2045 31.2225 22.2045 31.3256C22.1331 31.3573 21.1422 31.6109 21.0709 31.6268C20.6666 31.7061 20.2702 31.7774 19.858 31.7933C20.3891 31.1749 21.6178 29.97 22.1965 29.4072H22.2045ZM21.9746 17.9205C20.8965 18.4833 19.9135 19.1889 18.9384 19.9023C17.7652 20.7585 16.6712 21.7177 15.7437 22.8434C15.712 22.8751 14.9748 23.7709 14.8321 23.9611C14.8321 24.5715 14.8321 22.0982 14.8242 21.0914C14.9668 20.9329 15.2522 20.7268 15.2522 20.6316C16.037 19.8231 17.0993 18.737 17.6621 18.2614C18.8433 17.2705 20.0562 16.3271 21.3166 15.4472C21.4276 15.3679 21.927 15.0508 22.1569 14.9002C22.1569 15.0033 22.1569 15.0984 22.1569 15.2014C22.1569 16.0734 22.1569 16.9454 22.1569 17.8174C22.0935 17.8571 22.0301 17.8967 21.9666 17.9284L21.9746 17.9205ZM22.141 10.7463C21.6813 10.992 20.833 11.4756 20.5239 11.6817C19.5409 12.308 18.5975 12.9818 17.7255 13.7666C17.678 13.8062 17.6304 13.8459 17.5908 13.8855C16.8773 14.4642 15.5455 15.7801 14.8162 16.5412C14.8162 15.907 14.8162 15.2649 14.8162 14.6307C14.8162 14.2898 14.8162 13.9489 14.8162 13.6081C15.3315 12.9977 15.8864 12.411 16.5047 11.8958C17.2816 11.2457 18.1061 10.675 19.0335 10.2627C19.1287 10.2231 19.2714 10.1755 19.4299 10.1359C20.6586 10.2231 22.149 10.3737 22.1569 10.3975C22.1728 10.4371 22.1569 10.675 22.1569 10.7542L22.141 10.7463ZM14.8004 31.9756C14.9034 31.9994 15.0144 32.0152 15.1175 32.0549C15.5852 32.2372 16.0846 32.2848 16.5761 32.3403C17.5274 32.4433 18.4786 32.4275 19.4378 32.4037C20.0482 32.3878 20.6507 32.3323 21.2453 32.2213C21.4434 32.1817 21.6337 32.1183 21.8319 32.0707C21.9666 32.0311 22.1093 31.9915 22.252 31.9677C22.1886 32.0787 22.0776 32.1024 21.9746 32.1342C21.7843 32.1896 21.5861 32.2451 21.388 32.3006C21.2294 32.3482 21.0788 32.4195 20.9202 32.4354C20.3653 32.4909 19.8184 32.6415 19.2476 32.6336C18.6372 32.6256 18.0347 32.6336 17.4243 32.6336C17.3212 32.6336 17.2182 32.6098 17.1151 32.5939C16.806 32.5543 16.4968 32.5147 16.1876 32.4592C16.0132 32.4275 15.8468 32.372 15.6803 32.3244C15.49 32.2689 15.3077 32.2134 15.1175 32.1659C14.9986 32.1341 14.8796 32.1024 14.7924 32.0152C14.7924 31.9994 14.8004 31.9915 14.8083 31.9756H14.8004ZM22.4026 10.0487C22.3392 10.0408 22.2996 10.0328 22.2679 10.0249C21.816 9.85844 21.3483 9.79502 20.8727 9.73161C19.8342 9.58099 18.7878 9.56513 17.7414 9.59684C17.242 9.6127 16.7426 9.67612 16.2431 9.72368C15.823 9.77124 15.4028 9.81881 14.9906 9.93772C14.8479 9.97735 14.7052 10.0249 14.5546 10.0725C14.4119 9.89808 14.293 9.71575 14.2296 9.48586C14.2692 9.47001 14.3009 9.44622 14.3327 9.43037C15.3474 9.17669 16.3779 9.01022 17.4243 8.93095C18.0347 8.88339 18.653 8.86753 19.2634 8.90717C20.3891 8.97851 21.5069 9.13706 22.6088 9.40659C22.6325 9.40659 22.6563 9.43037 22.7197 9.46208C22.6088 9.66026 22.5057 9.85052 22.4026 10.0408V10.0487ZM22.799 7.76564C22.8624 7.78149 22.9258 7.79734 22.9893 7.82113C23.2112 7.89247 23.235 7.91626 23.2033 8.13822C23.1557 8.41568 23.124 8.70106 22.8307 8.87546C22.8149 8.87546 22.7752 8.86753 22.7435 8.85168C22.0301 8.58215 21.2849 8.46324 20.5239 8.39189C19.4458 8.28884 18.3677 8.29677 17.2895 8.3364C16.3938 8.36811 15.5059 8.47117 14.6418 8.72484C14.4516 8.78033 14.2692 8.84375 14.0869 8.90717C13.7777 8.70106 13.746 8.36811 13.7064 8.04309C13.6985 7.97175 13.7302 7.91625 13.8015 7.89247C13.9125 7.85284 14.0235 7.8132 14.1345 7.78942C14.9827 7.58331 15.8388 7.45647 16.7029 7.3772C17.5987 7.29 18.4945 7.26622 19.3823 7.30585C20.5318 7.36134 21.6733 7.49611 22.7911 7.76564H22.799ZM21.3562 6.5924C21.5465 6.6241 21.713 6.73509 21.8557 6.90949C21.7209 6.89363 21.5861 6.88571 21.4434 6.86985C19.422 6.64789 17.4164 6.65581 15.3949 6.89363C15.276 6.90949 15.165 6.90949 15.0461 6.92534C15.1888 6.74301 15.3632 6.63996 15.5614 6.60825C16.2511 6.49727 16.9487 6.41007 17.6463 6.40214C18.2408 6.40214 18.8354 6.38629 19.4299 6.40214C20.08 6.418 20.7221 6.48934 21.3562 6.5924ZM20.6824 5.90272C20.2861 5.87101 19.9214 5.84723 19.525 5.82345C19.7549 5.65698 19.9373 5.53014 20.1196 5.39537C20.3574 5.49843 20.508 5.69661 20.6824 5.90272ZM16.5919 3.59588C16.6078 2.73973 17.2578 1.78845 18.4311 1.78053C19.6519 1.78053 20.294 2.77144 20.2781 3.58795C20.2781 3.6038 20.2781 3.61966 20.2781 3.62759C20.2781 4.64228 19.4299 5.50636 18.4311 5.47465C17.1865 5.43501 16.5761 4.4441 16.584 3.6038C16.584 3.6038 16.584 3.59588 16.584 3.58795L16.5919 3.59588ZM16.7663 5.4033C16.9566 5.53806 17.1389 5.6649 17.345 5.81552C17.1468 5.87894 16.9645 5.85516 16.7743 5.87101C16.5919 5.88687 16.4096 5.91065 16.2035 5.9265C16.37 5.71247 16.5285 5.51428 16.7584 5.4033H16.7663Z" fill="white"/>
<path d="M17.8103 37.3253C17.7231 37.6345 17.9768 37.9833 18.2939 38.0784C18.7299 38.2132 19.0549 38.0467 19.2214 37.6662C18.6586 37.8723 18.2067 37.7296 17.8183 37.3174L17.8103 37.3253Z" fill="white"/>
</svg>
