<svg width="40" height="35" viewBox="0 0 40 35" fill="none" xmlns="http://www.w3.org/2000/svg">
<path d="M14.7937 3.54117C14.5432 3.57075 14.302 3.44983 14.1647 3.23825C13.4215 2.09233 12.131 1.33333 10.6667 1.33333H10.3608C8.04058 1.33333 6.16992 3.21292 6.17333 5.52583L6.2075 33.5833H6.894C7.24917 33.5833 7.55917 33.8515 7.58192 34.2059C7.60683 34.5943 7.29958 34.9167 6.91667 34.9167H0.689332C0.334166 34.9167 0.0241656 34.6485 0.00141563 34.2941C-0.023501 33.9058 0.283749 33.5833 0.666666 33.5833H4.87417L4.84 5.5275C4.83658 2.475 7.30508 0 10.3608 0H10.6667C12.6091 0 14.3198 1.01233 15.2987 2.53683C15.5465 2.92275 15.337 3.47692 14.7937 3.54117ZM15.5 4.83333C12.9267 4.83333 10.8333 6.92667 10.8333 9.5V10.6667C10.8333 11.035 11.1317 11.3333 11.5 11.3333H19.5C19.8683 11.3333 20.1667 11.035 20.1667 10.6667V9.5C20.1667 6.92667 18.0733 4.83333 15.5 4.83333ZM31.6716 34.2305C31.6537 33.6466 31.665 32.3964 31.6665 29.3338C31.6667 28.9655 31.3682 28.6667 30.9998 28.6667H17.8335C17.4652 28.6667 17.1667 28.9655 17.1668 29.3338C17.1684 32.3968 17.1797 33.6468 17.1618 34.2306C17.1503 34.6064 17.4522 34.9168 17.8282 34.9168H31.0052C31.3813 34.9167 31.683 34.6063 31.6716 34.2305ZM37.0108 23.1667H35.9892C34.3408 23.1667 33 24.5075 33 26.1558V34.25C33 34.6183 33.2983 34.9167 33.6667 34.9167H37.0108C38.6592 34.9167 40 33.5758 40 31.9275V26.1558C40 24.5075 38.6592 23.1667 37.0108 23.1667ZM12.8442 23.1667H11.8225C10.1742 23.1667 8.83333 24.5075 8.83333 26.1558V31.9275C8.83333 33.5758 10.1742 34.9167 11.8225 34.9167H15.1667C15.535 34.9167 15.8333 34.6183 15.8333 34.25V26.1558C15.8333 24.5075 14.4925 23.1667 12.8442 23.1667ZM23.0833 15.25H15.2367C13.265 15.25 11.6667 16.8483 11.6667 18.82V21.1667C11.6667 21.5347 11.9647 21.8332 12.3328 21.8333C12.4689 21.8333 12.6364 21.8334 12.8435 21.8334C15.231 21.8334 17.1667 23.7688 17.1667 26.1562V26.6668C17.1667 27.0349 17.4652 27.3334 17.8333 27.3334H23.0833C23.4515 27.3334 23.75 27.0349 23.75 26.6668V15.9168C23.75 15.5485 23.4515 15.25 23.0833 15.25ZM33.43 15.25H25.75C25.3818 15.25 25.0833 15.5485 25.0833 15.9167V26.6667C25.0833 27.0348 25.3818 27.3333 25.75 27.3333H31C31.3682 27.3333 31.6667 27.0348 31.6667 26.6667V26.1558C31.6667 23.7745 33.6036 21.8333 35.9892 21.8333H36.3333C36.7015 21.8333 37 21.5348 37 21.1667V18.82C37 16.8483 35.4017 15.25 33.43 15.25Z" fill="#D82028"/>
</svg>
