<svg width="40" height="40" viewBox="0 0 40 40" fill="none" xmlns="http://www.w3.org/2000/svg">
<path d="M25.2292 16.4164L28.4085 19.811C28.7089 20.132 29.1295 20.314 29.5689 20.314H35.0333C35.9111 20.314 36.6229 19.6022 36.6229 18.7244C36.6229 17.8465 35.9111 17.1348 35.0333 17.1348H30.2582L27.5501 14.2431C26.9501 13.602 25.9434 13.5701 25.3031 14.1693C24.6618 14.7697 24.6292 15.7756 25.2292 16.4164Z" fill="#D82028"/>
<path d="M39.172 31.9096L37.2843 22.9182C37.1298 22.1824 36.481 21.6554 35.7288 21.6554H30.3077L30.1094 21.1109H29.569C28.9093 21.1109 28.2814 20.8326 27.8283 20.3558L24.649 16.9618C23.9734 16.2386 23.8304 15.2054 24.2119 14.3628L22.7892 14.8794C22.0262 15.1497 21.6367 15.9842 21.907 16.7394L24.816 24.775C25.0862 25.538 25.9207 25.9274 26.6838 25.6492L28.9429 24.8346H34.4379L34.8978 27.0243H24.9034L21.891 20.7055C21.74 21.699 21.6446 22.7085 21.6526 23.6782C21.6526 24.2902 21.6049 24.8704 21.5015 25.4188L23.0753 28.7252C23.274 29.1386 23.6952 29.4088 24.1562 29.4088H26.2943V34.7182H22.1136C21.3744 34.7182 20.7783 35.3222 20.7783 36.0614C20.7783 36.8006 21.3744 37.4047 22.1136 37.4047H36.1739C36.9131 37.4047 37.5172 36.8006 37.5172 36.0614C37.5172 35.3222 36.9131 34.7182 36.1739 34.7182H32.0011V29.4088H35.3986L36.061 32.5631C36.2394 33.4157 37.0754 33.9725 37.9432 33.7922C38.8026 33.6117 39.3529 32.7688 39.172 31.9096Z" fill="#D82028"/>
<path d="M16.4466 11.2312L16.9235 5.65953C16.3274 5.28593 15.612 6.52585 15.612 6.52585L15.2146 11.2868C15.453 11.2153 15.6994 11.1756 15.9538 11.1756C16.1208 11.1756 16.2876 11.1914 16.4466 11.2312Z" fill="#D82028"/>
<path d="M19.4589 6.40674L16.5181 11.2471C16.9155 11.3425 17.281 11.5412 17.5831 11.8195L19.7848 8.09178C20.4762 6.67698 19.4589 6.40674 19.4589 6.40674Z" fill="#D82028"/>
<path d="M8.17261 10.2615L10.6842 13.0195C10.7772 11.8445 11.0776 10.4987 9.74637 10.3807L8.17261 10.2615Z" fill="#D82028"/>
<path d="M10.057 21.0901L10.247 18.615C9.011 18.5516 8.93348 18.173 4.6038 13.4248C4.1746 12.956 3.96004 12.3439 3.9918 11.708C4.01564 11.0722 4.2938 10.484 4.76276 10.0548C4.7866 10.039 4.80252 10.0151 4.82636 10.0072L4.03948 9.94363C3.41156 9.88795 2.86316 10.3648 2.81548 10.9928L1.98084 21.7227C1.9538 22.0791 2.09684 22.4088 2.33724 22.6391L3.30196 28.9323L0.880276 36.627C0.246516 38.6382 3.279 39.5938 3.91204 37.5817C6.52972 29.2668 6.59196 29.4057 6.5006 28.8159L5.633 23.1577L7.30044 23.2878L8.79508 29.7749L6.55036 36.5553C6.27404 37.3885 6.72652 38.2881 7.5594 38.5637C8.3938 38.8396 9.2926 38.3872 9.5682 37.5543L11.9527 30.3512C12.0443 30.0749 12.0583 29.7788 11.9931 29.4951L10.057 21.0901Z" fill="#D82028"/>
<path d="M15.2677 12.126L10.7712 14.294L7.54613 10.7495C6.95549 10.0998 5.94949 10.0524 5.30061 10.6439C4.65093 11.2345 4.60357 12.2401 5.19429 12.8894C9.29829 17.3988 9.70869 18.3337 11.084 17.6727L16.6477 14.9902C17.4386 14.6087 17.7708 13.6587 17.3897 12.8677C17.0079 12.0764 16.0547 11.7465 15.2677 12.126Z" fill="#D82028"/>
<path d="M7.71132 8.45829C9.68673 8.45829 11.2881 6.8569 11.2881 4.88149C11.2881 2.90608 9.68673 1.30469 7.71132 1.30469C5.73591 1.30469 4.13452 2.90608 4.13452 4.88149C4.13452 6.8569 5.73591 8.45829 7.71132 8.45829Z" fill="#D82028"/>
<path d="M23.0752 13.5335C24.5408 13.5335 25.7288 12.3455 25.7288 10.8799C25.7288 9.41438 24.5408 8.22632 23.0752 8.22632C21.6097 8.22632 20.4216 9.41438 20.4216 10.8799C20.4216 12.3455 21.6097 13.5335 23.0752 13.5335Z" fill="#D82028"/>
</svg>
